<svg width="464" height="463" viewBox="0 0 464 463" fill="none" xmlns="http://www.w3.org/2000/svg">
<path d="M178.189 0.789595C178.4 1.93262 179.43 4.28102 180.397 5.83969C183.592 10.9937 189.099 14.9215 196.309 17.2491C198.621 17.9973 198.999 18.0597 202.047 18.1636C207.471 18.3506 213.167 19.556 218.485 21.6758C227.986 25.4166 235.322 32.3994 239.274 41.4397C240.451 44.1206 240.556 43.9128 239.905 40.0889C237.908 28.6794 231.728 19.078 222.71 13.4876C221.596 12.781 219.915 11.8665 218.99 11.4509C217.413 10.7443 217.056 10.6612 214.176 10.4326C205.915 9.76753 196.288 7.79322 189.267 5.29935C186.534 4.32258 180.943 1.76636 179.072 0.623337L178.042 -0.000130983L178.189 0.789595Z" fill="#FE4600"/>
<path d="M234.146 4.01122C240.052 8.70801 244.677 14.8596 246.905 20.9696C248.671 25.8326 251.046 37.3044 251.803 44.6821L251.971 46.1992L252.854 44.5782C257.814 35.3093 258.109 25.6871 253.652 18.1016C250.226 12.3241 244.067 7.54421 235.197 3.76184C233.83 3.20071 232.674 2.72272 232.611 2.72272C232.548 2.72272 233.242 3.30463 234.146 4.01122Z" fill="#FE4600"/>
<path d="M148.908 10.121C146.407 10.4535 142.876 11.2225 140.143 11.9914C138.23 12.5525 132.807 14.5476 132.933 14.6723C132.975 14.6931 134.657 14.8386 136.675 14.9633C149.371 15.8153 160.995 17.1246 168.331 18.5378C172.178 19.2652 176.487 20.429 177.685 21.0109C178.148 21.2603 178.589 21.4266 178.631 21.385C178.778 21.2187 176.025 17.9767 174.826 16.8752C171.947 14.2982 167.785 11.9914 164.169 10.9523C160.133 9.80927 153.848 9.45597 148.908 10.121Z" fill="#FE4600"/>
<path d="M265.949 12.6981C266.832 13.9242 268.472 17.6235 269.081 19.8264C270.111 23.4217 270.426 26.3312 270.3 30.5708C270.153 35.3092 269.46 39.0084 267.862 43.7675L267.231 45.6379L267.967 44.8066C273.18 39.0292 276.606 32.7529 277.3 27.6613C278.246 20.8863 274.546 15.6699 266.496 12.4071C265.424 11.9707 265.424 11.9707 265.949 12.6981Z" fill="#FE4600"/>
<path d="M185.231 20.6576C185.231 21.1771 187.018 23.3593 188.426 24.5854C191.18 26.9754 195.93 30.2174 199.714 32.3164C200.702 32.8568 202.11 33.7296 202.867 34.27C204.654 35.5169 209.173 39.9851 211.738 43.0401C214.807 46.6978 218.296 51.2283 218.086 51.2906C217.981 51.3322 214.155 50.6672 209.615 49.7943C205.053 48.9422 201.186 48.2356 201.038 48.2356C200.45 48.2356 203.393 53.0779 205.81 56.1121C209.299 60.4348 213.566 63.5522 217.56 64.7368L218.653 65.0485V64.2588C218.653 63.2612 219.221 61.3908 219.746 60.6427C221.449 58.2943 225.233 59.4165 230.362 63.8016L232.085 65.2771L232.232 64.3003C232.758 60.8297 230.656 46.0535 229.1 42.2504C227.503 38.4056 223.131 33.9374 217.644 30.5915C213.482 28.0353 212.179 27.4949 208.648 26.726C204.864 25.9363 200.45 24.8556 196.582 23.7957C194.354 23.1722 186.324 20.7407 185.504 20.4498C185.357 20.3874 185.231 20.4913 185.231 20.6576Z" fill="#FE4600"/>
<path d="M168.1 30.7163C163.097 31.028 158.746 31.8801 153.806 33.5219C148.93 35.1222 143.801 36.5146 138.146 37.7407C135.666 38.2603 133.48 38.7591 133.312 38.8214C132.429 39.1331 137.326 39.8813 141.467 40.0476C146.828 40.2762 157.275 39.3617 160.428 38.385C164.085 37.2419 167.848 36.764 173.25 36.7847C178.715 36.7847 183.193 37.2627 189.12 38.4681C190.718 38.8006 192.084 39.0292 192.147 38.9669C192.21 38.9045 191.601 38.2603 190.802 37.5121C185.421 32.5036 177.517 30.1344 168.1 30.7163Z" fill="#FE4600"/>
<path d="M100.352 44.1417C101.003 45.3055 103.273 47.55 104.871 48.6307C111.871 53.2859 123.873 55.8005 136.443 55.2602C140.353 55.0939 142.77 54.7406 147.29 53.6392C153.112 52.2468 157.358 51.7688 164.001 51.7688C172.241 51.7688 183.823 53.0573 192.252 54.9069C193.282 55.1355 194.144 55.281 194.186 55.2394C194.228 55.1978 193.681 54.6991 192.946 54.1172C187.838 50.0646 182.478 47.4045 176.34 45.8666C171.484 44.6405 169.235 44.3911 162.845 44.4119C157.8 44.4119 156.77 44.4742 153.554 44.973C149.56 45.5757 145.146 46.5732 141.614 47.6747C136.633 49.2333 132.008 49.8984 126.27 49.8984C117.399 49.8984 108.844 47.9241 101.823 44.2872L99.8682 43.2688L100.352 44.1417Z" fill="#FE4600"/>
<path d="M291.173 44.8273C284.363 45.6378 276.354 47.6953 269.291 50.4801C266.559 51.54 262.754 53.2441 262.838 53.348C262.88 53.3688 264.183 53.0779 265.739 52.683C272.171 51.062 279.738 50.0229 286.78 49.7735C300.843 49.2747 316.587 52.6622 328.148 58.6683L330.965 60.123L330.313 59.2086C329.283 57.837 326.34 54.7197 324.743 53.3272C319.551 48.7967 312.593 45.8248 304.773 44.8065C301.704 44.4117 294.579 44.4324 291.173 44.8273Z" fill="#FE4600"/>
<path d="M369.579 55.4264C361.36 56.4032 354.676 58.3567 346.541 62.1599C345.069 62.8457 343.934 63.4692 343.997 63.5315C344.06 63.6146 345.952 63.5523 348.18 63.4276C375.381 61.8274 395.434 63.3029 403.422 67.4801L404.788 68.2075L402.98 66.4618C397.326 61.0376 390.116 57.4839 381.666 55.9044C379.879 55.5719 378.302 55.4472 374.834 55.4056C372.354 55.3641 369.978 55.3849 369.579 55.4264Z" fill="#FE4600"/>
<path d="M124.063 57.4837C122.738 57.6292 120.741 57.8994 119.648 58.0864C115.171 58.8138 111.493 59.1255 107.141 59.1255C104.493 59.1255 102.349 59.0216 101.781 58.8969C101.277 58.7514 100.814 58.6683 100.793 58.7099C100.751 58.7307 102.958 60.1646 105.649 61.8688C108.361 63.5729 110.526 65.0277 110.442 65.1108C110.21 65.3394 102.559 66.8773 98.8384 67.4384C88.4123 69.0387 79.0163 68.9555 74.6861 67.2514C73.9504 66.9604 73.9714 66.9812 75.1486 68.0827C78.4277 71.1585 83.6407 73.6731 89.2531 74.8785C91.1029 75.2733 92.0068 75.3357 96.421 75.3357C100.793 75.3357 101.802 75.2733 103.988 74.8785C108.865 73.9641 112.922 72.7171 117.694 70.7012C125.912 67.2098 143.717 63.469 152.629 63.3443L155.74 63.3028L155.067 62.8456C151.893 60.705 145.735 58.5852 140.038 57.6916C137.032 57.2136 127.447 57.0889 124.063 57.4837Z" fill="#FE4600"/>
<path d="M174.091 61.1831C174.091 61.2247 177.959 64.8824 182.688 69.3298C187.439 73.7772 191.264 77.4556 191.243 77.4972C191.201 77.518 189.394 77.227 187.207 76.8114C179.976 75.4605 172.283 74.2967 165.683 73.5901C162.635 73.2576 156.266 73.1121 154.857 73.3407C154.164 73.4447 151.788 74.0681 149.581 74.7124C140.963 77.2062 133.038 78.8896 128.582 79.1806L126.27 79.326L128.056 80.1989C135.729 83.8566 147.921 85.0827 160.323 83.4409C161.605 83.2747 163.37 83.0461 164.274 82.9214C167.385 82.5265 176.361 83.1708 181.952 84.2099C192.715 86.205 201.585 90.5277 206.21 96.0765C206.819 96.8039 210.119 101.459 213.525 106.426C216.951 111.393 219.978 115.799 220.272 116.194L220.798 116.921L220.672 116.09C220.609 115.633 220.503 113.201 220.44 110.686L220.293 106.114L220.987 106.946C222.374 108.608 225.317 111.518 227.587 113.43C232.926 117.981 238.728 121.098 244.572 122.553C246.316 122.99 247.367 123.114 250.289 123.177L253.863 123.281L253.232 122.803C252.896 122.532 251.214 121.223 249.49 119.872C237.404 110.354 230.047 102.623 228.239 97.5729C226.915 93.8528 223.825 88.5534 220.588 84.3969C218.864 82.194 213.672 77.0192 211.297 75.1696C202.195 68.0205 190.676 63.3653 177.433 61.4533C175.331 61.1416 174.091 61.0376 174.091 61.1831Z" fill="#FE4600"/>
<path d="M330.166 66.4203C329.977 66.8775 329.241 68.5401 328.568 70.1195C327.896 71.7198 327.328 73.0498 327.328 73.0914C327.328 73.2992 328.253 73.133 329.304 72.7381C331.595 71.9068 332.478 70.3897 331.868 68.3323C331.679 67.7296 331.301 66.8775 331.028 66.4203L330.502 65.589L330.166 66.4203Z" fill="#FE4600"/>
<path d="M406.469 72.5508C403.085 73.2366 399.764 75.772 398.187 78.9101C397.746 79.783 397.704 80.0532 397.83 81.6118C398.145 85.8306 399.953 88.4492 403.379 89.6338C404.662 90.0702 407.941 90.4859 408.971 90.3404C409.328 90.278 410.673 90.0702 411.977 89.8832C414.205 89.5299 414.352 89.5299 415.277 89.8832C417.295 90.6521 418.766 93.2707 419.481 97.3856L419.733 98.8403L420.595 97.0738C421.52 95.1203 422.382 92.7096 422.844 90.6313C424.189 84.7915 422.613 78.9725 418.724 75.3356C417.484 74.1718 415.34 73.2781 412.397 72.6755C410.715 72.3222 407.899 72.2806 406.469 72.5508Z" fill="#FE4600"/>
<path d="M314.821 77.4973C313.896 77.7051 311.962 78.1416 310.512 78.4533C299.96 80.7809 296.617 81.6538 293.023 83.067C290.774 83.9606 289.66 84.5633 288.714 85.4569C287.831 86.2882 287.726 86.2259 291.32 86.974C298.152 88.3872 303.575 89.0315 309.145 89.0523C314.968 89.073 318.52 88.408 321.232 86.787C323.628 85.353 324.343 84.0022 324.112 81.342C323.986 79.6171 323.25 78.5157 321.758 77.7675C320.328 77.0817 317.28 76.957 314.821 77.4973Z" fill="#1D2943"/>
<path d="M369.432 77.8294C366.342 78.4113 361.633 79.9077 362.222 80.1155C362.684 80.261 389.548 86.4749 389.779 86.4749C390.052 86.4749 389.443 85.3318 388.476 84.0849C386.395 81.3209 383.221 79.1803 379.626 78.1412C377.651 77.5593 371.807 77.393 369.432 77.8294Z" fill="#FE4600"/>
<path d="M174.406 89.9872C173.397 90.1535 170.98 91.4212 168.1 93.2708C161.499 97.552 157.695 101.771 156.749 105.844C155.151 112.848 156.413 121.618 160.007 128.185C161.92 131.697 165.094 135.417 168.247 137.828C169.193 138.555 171.274 140.363 172.829 141.86C180.144 148.822 187.123 153.082 194.585 155.14C197.444 155.929 199.63 156.158 202.867 156.033C207.05 155.888 207.05 155.888 204.843 154.017C200.576 150.38 192.672 142.774 189.162 138.867C182.667 131.718 178.295 125.109 177.033 120.558C176.466 118.48 176.508 117.607 177.244 115.383C179.367 108.961 183.339 104.41 188.174 102.872C190.129 102.249 193.618 102.103 195.952 102.581C197.906 102.976 201.038 104.057 202.951 104.992C203.603 105.325 204.149 105.532 204.149 105.449C204.128 105.013 202.279 101.979 200.996 100.274C196.834 94.8087 190.97 91.2757 184.201 90.1327C182.183 89.8002 176.151 89.6963 174.406 89.9872Z" fill="#FE4600"/>
<path d="M319.551 90.3406C317.974 90.7562 309.587 93.354 304.836 94.9127L300.948 96.1804L302.356 96.4298C305.888 97.0324 310.386 96.9077 313.56 96.118C317.533 95.1205 321.947 91.8369 321.358 90.3198C321.232 89.9457 321.064 89.9457 319.551 90.3406Z" fill="#FE4600"/>
<path d="M157.064 90.8601C155.067 91.6498 147.899 93.2916 142.665 94.1644C135.939 95.2867 132.849 95.5153 124.903 95.5153C116.6 95.4945 114.94 95.349 107.33 93.8735C81.4545 88.865 59.6355 90.6107 46.1195 98.7573C41.1167 101.792 36.9757 106.26 34.3902 111.414C33.4864 113.222 31.9309 117.441 32.099 117.628C32.1411 117.669 32.5825 117.357 33.087 116.963C34.6214 115.716 38.1108 113.596 40.6332 112.349C56.7347 104.327 77.4817 102.685 100.205 107.59C104.892 108.587 108.718 108.837 114.603 108.525C127.51 107.86 138.461 104.701 147.773 99.0275C151.053 97.0116 152.923 95.5984 156.118 92.7305C158.22 90.8393 158.494 90.2989 157.064 90.8601Z" fill="#1D2943"/>
<path d="M341.307 98.7575C337.544 99.0484 333.76 99.5472 329.956 100.316C326.34 101.023 322.788 101.958 324.491 101.75C327.286 101.397 333.13 101.002 337.313 100.898C352.889 100.482 369.873 103.434 380.993 108.484C382.002 108.941 382.822 109.294 382.822 109.253C382.822 109.086 379.585 107.008 377.504 105.803C367.729 100.254 354.844 97.7599 341.307 98.7575Z" fill="#FE4600"/>
<path d="M140.143 111.289C136.107 112.91 128.771 115.196 123.432 116.505C114.267 118.771 107.183 119.623 100.415 119.269C97.0727 119.082 94.5713 118.563 91.3342 117.316C85.7218 115.196 79.0373 114.115 71.1758 114.115C57.7649 114.115 45.0476 117.274 36.8707 122.678C32.5826 125.525 29.3665 129.266 27.8951 133.11L27.3906 134.44L29.4296 133.609C30.5437 133.152 33.2763 132.196 35.4624 131.469C43.7864 128.705 51.5849 127.208 57.954 127.146C60.8338 127.104 61.044 127.125 66.9927 128.393C74.2447 129.931 81.6228 131.282 88.2442 132.279C95.8535 133.422 98.7964 133.713 103.148 133.734L107.141 133.755L109.874 132.944C124.336 128.684 135.456 121.971 140.353 114.531C141.299 113.097 141.993 111.809 142.224 111.04C142.413 110.437 142.224 110.458 140.143 111.289Z" fill="#1D2943"/>
<path d="M416.58 115.258C416.097 117.191 413.616 121.431 411.241 124.382C406.175 130.679 396.716 138.057 386.437 143.751C385.113 144.478 383.957 145.081 383.852 145.081C383.746 145.081 385.638 142.13 388.077 138.535C390.494 134.939 392.491 131.947 392.491 131.884C392.491 131.656 386.227 137.08 386.206 137.308C386.185 137.433 385.68 138.535 385.05 139.74C382.906 143.896 379.753 147.887 374.708 152.791C371.197 156.179 367.098 159.608 364.24 161.541C360.876 163.806 356.315 168.523 351.859 174.322C347.865 179.538 345.994 184.796 345.994 190.802C345.994 196.143 347.529 201.089 350.661 205.765C351.081 206.389 351.88 207.74 352.447 208.779C355.117 213.725 358.985 218.588 364.723 224.261C370.966 230.413 375.675 234.154 383.978 239.599C391.062 244.233 394.299 245.875 396.317 245.875C396.884 245.875 397.157 245.771 397.326 245.459C397.515 245.085 397.41 244.815 396.611 243.714C394.257 240.451 384.461 230.288 373.047 219.253C369.705 216.011 365.543 212 363.84 210.337C362.117 208.675 360.12 206.617 359.384 205.765C353.078 198.325 350.913 189.804 353.477 182.489C355.411 177.003 355.874 176.254 360.099 172.098C363.546 168.71 371.912 161.873 372.227 162.185C372.29 162.247 371.576 169.292 370.63 177.813C369.705 186.355 368.948 193.379 368.99 193.4C369.032 193.441 370.462 186.729 372.164 178.478C374.582 166.882 375.401 163.266 375.822 162.517C377.356 159.712 383.999 153.913 389.443 150.588C395.98 146.64 399.491 143.98 403.211 140.176C408.382 134.877 412.313 128.746 414.856 121.95C415.676 119.768 416.937 115.217 416.811 114.864C416.769 114.739 416.664 114.926 416.58 115.258Z" fill="#FE4600"/>
<path d="M357.492 115.778C347.55 116.464 336.472 120.018 325.752 125.941C322.662 127.666 322.136 128.04 323.65 127.458C325.626 126.689 335.001 123.696 338.322 122.74C354.402 118.189 366.489 116.547 375.044 117.753C375.717 117.857 375.738 117.836 375.254 117.628C374.329 117.233 370.609 116.423 368.276 116.09C365.375 115.695 360.708 115.55 357.492 115.778Z" fill="#FE4600"/>
<path d="M381.35 126.169C378.344 126.938 372.543 130.097 367.477 133.755C363.819 136.373 357.828 141.195 354.087 144.52L353.603 144.936L352.3 144.395C351.564 144.084 350.913 143.834 350.829 143.834C350.724 143.834 350.661 144.562 350.661 145.434V147.055L348.18 150.9C346.793 153.02 343.871 157.55 341.643 160.98C339.415 164.409 337.775 167.027 338.006 166.799C338.238 166.57 341.664 162.351 345.616 157.447C349.589 152.521 352.889 148.427 352.973 148.323C353.078 148.24 353.793 148.531 354.591 148.988C360.078 152.126 366.279 152.355 371.891 149.591C373.152 148.988 373.552 148.697 373.257 148.635C373.026 148.593 369.39 148.032 365.165 147.388C358.438 146.37 357.492 146.162 357.429 145.829C357.387 145.621 357.639 144.853 358.018 144.125C360.099 139.906 368.212 134.004 380.404 127.79C383.725 126.107 384.272 125.754 383.662 125.774C383.263 125.774 382.212 125.961 381.35 126.169Z" fill="#FE4600"/>
<path d="M411.493 133.277C410.295 134.087 408.277 136.436 407.52 137.911C406.091 140.738 406.364 146.079 408.361 153.81C409.223 157.197 411.64 164.471 412.04 164.887C412.46 165.344 414.121 161.374 415.067 157.571C416.181 153.207 417.736 143.98 417.736 141.652C417.757 140.218 417.127 137.225 416.454 135.459C416.202 134.794 415.634 133.879 415.214 133.422C414.52 132.716 414.31 132.612 413.469 132.612C412.733 132.612 412.271 132.778 411.493 133.277Z" fill="#FE4600"/>
<path d="M119.228 138.431C115.675 139.969 111.555 141.174 106.931 141.984C101.613 142.92 93.3939 142.712 88.6643 141.527C85.1119 140.634 73.9502 139.137 66.8874 138.618C62.7674 138.306 55.3473 138.493 53.3714 138.93C51.8159 139.262 49.7979 140.114 49.1883 140.654C48.7049 141.091 48.789 141.195 51.3114 142.982C60.5183 149.549 70.7551 153.747 80.7607 155.077C83.8927 155.493 89.6103 155.41 92.7423 154.89C101.802 153.373 109.432 149.445 116.579 142.587C118.997 140.26 121.498 137.579 121.204 137.62C121.099 137.641 120.216 137.994 119.228 138.431Z" fill="#1D2943"/>
<path d="M264.73 154.828C271.877 157.738 278.414 161.956 282.891 166.528C286.738 170.456 288.252 172.909 288.966 176.379C292.371 192.569 299.729 206.763 308.704 214.411C309.965 215.491 311.037 216.344 311.079 216.281C311.122 216.24 310.806 215.616 310.344 214.889C308.473 211.834 305.026 205.537 302.629 200.778C299.077 193.691 296.87 188.454 295.588 184.048C294.999 182.032 294.81 181.159 293.927 176.462C292.771 170.477 290.122 165.385 286.044 161.374C283.774 159.13 282.177 158.008 279.507 156.719C275.555 154.828 272.676 154.225 267 154.101L262.691 153.997L264.73 154.828Z" fill="#FE4600"/>
<path d="M218.759 157.841C217.96 158.008 216.762 158.319 216.131 158.548C214.113 159.255 209.93 161.499 210.624 161.499C210.771 161.499 216.825 162.206 224.098 163.058C231.35 163.91 237.467 164.616 237.677 164.616C238.034 164.616 238.034 164.596 237.656 164.18C237.446 163.931 236.416 163.079 235.365 162.289C233.158 160.585 229.584 158.777 227.167 158.153C225.002 157.592 220.861 157.447 218.759 157.841Z" fill="#FE4600"/>
<path d="M103.252 160.688C98.2497 161.021 95.2438 161.395 85.7006 162.85C81.959 163.411 76.5778 165.364 67.7283 169.313C62.4943 171.641 43.513 181.055 43.4079 181.367C43.3238 181.637 45.1105 182.157 47.2336 182.489C48.8942 182.759 54.0651 182.822 56.2723 182.593C62.1579 182.032 71.617 179.808 78.0072 177.501C78.9741 177.148 79.8149 176.899 79.857 176.961C79.899 177.003 79.8149 177.314 79.6468 177.647C78.9321 179.018 75.9262 186.084 76.0103 186.168C76.0733 186.23 80.2563 185.274 85.3222 184.069C92.8685 182.24 94.6762 181.741 95.3699 181.263C99.5319 178.395 106.132 176.275 114.183 175.236C119.165 174.592 122.192 174.405 128.372 174.363C136.927 174.301 140.816 173.948 145.65 172.701C151.137 171.308 157.064 168.503 160.385 165.718L161.1 165.136L156.812 165.115C149.077 165.053 133.48 163.515 128.582 162.33C125.324 161.541 121.54 160.959 117.988 160.668C114.772 160.439 106.889 160.439 103.252 160.688Z" fill="#FE4600"/>
<path d="M180.292 170.456C166.692 171.62 149.014 177.917 133.311 187.228C130.6 188.849 124.588 192.756 122.654 194.169C119.985 196.102 111.892 200.611 106.069 203.396C95.3699 208.529 85.9108 211.543 78.4486 212.208C76.9982 212.333 75.8 212.478 75.758 212.499C75.6529 212.623 82.6947 213.663 85.7006 213.995C89.8626 214.432 98.628 214.598 102.727 214.307C116.621 213.288 127.804 209.818 137.263 203.583C138.251 202.939 138.503 202.648 138.314 202.503C138.167 202.399 136.885 201.65 135.476 200.861C134.047 200.071 132.891 199.385 132.891 199.323C132.891 199.26 144.137 192.693 157.842 184.713C171.568 176.753 182.709 170.248 182.604 170.248C182.478 170.269 181.448 170.373 180.292 170.456Z" fill="#FE4600"/>
<path d="M216.762 171.391C216.362 171.433 215.122 171.578 214.029 171.703C204.759 172.742 193.387 176.525 183.718 181.783C172.788 187.705 161.983 195.727 154.773 203.271C150.632 207.594 147.185 210.005 140.774 213.06C132.303 217.071 121.75 220.354 112.459 221.851C99.3429 223.971 88.6646 227.857 81.4547 233.115C79.71 234.382 77.0614 236.814 76.0945 238.04L75.4429 238.851L76.8722 237.895C82.2744 234.32 92.8056 233.343 107.246 235.068C111.051 235.525 119.018 236.876 119.27 237.126C119.354 237.188 113.553 241.511 106.364 246.706C99.1957 251.902 93.289 256.245 93.226 256.328C93.0788 256.578 94.256 256.349 97.8925 255.414C115.949 250.863 137.011 237.915 158.956 217.881C163.181 214.016 171.926 205.37 175.268 201.713C176.424 200.445 178.106 198.491 179.031 197.348C183.571 191.696 189.73 186.812 196.772 183.341C204.276 179.621 212.495 177.335 222.753 176.109C226.683 175.652 240.241 175.569 243.437 176.005C244.509 176.151 245.433 176.234 245.476 176.192C245.623 176.067 240.788 174.259 238.497 173.594C235.953 172.846 232.947 172.181 230.11 171.765C228.113 171.454 218.507 171.184 216.762 171.391Z" fill="#FE4600"/>
<path d="M205.978 193.919C201.921 194.293 198.747 195.187 195.531 196.85C189.12 200.175 184.58 205.931 181.763 214.39C180.859 217.029 179.682 221.83 179.808 222.225C179.85 222.329 180.333 221.767 180.922 220.999C181.49 220.23 183.171 218.359 184.685 216.884C193.765 207.947 205.726 202.606 220.755 200.777C221.743 200.653 225.275 200.507 228.617 200.424L234.713 200.299L233.557 199.738C230.299 198.096 223.803 195.894 219.599 194.979C215.122 194.002 209.594 193.587 205.978 193.919Z" fill="#FE4600"/>
<path d="M240.241 206.617C236.1 206.887 232.884 207.656 232.148 208.529C231.833 208.903 230.929 208.612 243.772 212.332L252.181 214.764L254.913 214.868C261.429 215.096 267.315 213.33 272.612 209.527C273.348 209.028 273.915 208.571 273.873 208.55C273.768 208.425 265.633 207.594 260.82 207.22C255.628 206.784 246.778 206.368 244.193 206.43C243.394 206.43 241.607 206.513 240.241 206.617Z" fill="#FE4600"/>
<path d="M399.806 218.172C396.464 221.56 394.866 223.555 393.374 226.34C392.281 228.335 391.86 229.811 391.86 231.515C391.86 233.115 392.554 234.819 393.416 235.38C394.173 235.879 395.476 236.004 396.632 235.671C398.713 235.11 400.92 232.117 401.782 228.73C402.202 227.067 402.265 226.361 402.244 222.287C402.244 219.773 402.16 217.362 402.034 216.926L401.845 216.115L399.806 218.172Z" fill="#FE4600"/>
<path d="M217.392 218.983C211.212 219.918 204.402 221.601 199 223.534C184.096 228.875 170.938 238.248 162.572 249.45C156.539 257.513 143.443 267.239 127.888 275.24C125.996 276.196 124.525 277.048 124.63 277.09C124.714 277.152 126.837 277.693 129.318 278.295C131.798 278.898 133.921 279.459 134.005 279.542C134.215 279.729 131.483 281.974 128.897 283.74C123.117 287.689 112.459 292.905 101.193 297.332C96.8624 299.057 96.5892 299.182 97.4089 299.244C98.6702 299.348 104.072 298.745 107.457 298.122C115.507 296.667 122.97 294.111 131.104 290.058C140.942 285.133 149.077 279.334 156.875 271.645C158.893 269.65 168.142 259.799 177.412 249.782C186.682 239.765 194.733 231.244 195.279 230.849C198.516 228.543 205.894 224.864 216.131 220.5C218.506 219.482 220.209 218.671 219.915 218.671C219.621 218.692 218.485 218.817 217.392 218.983Z" fill="#FE4600"/>
<path d="M277.931 221.019C270.931 222.308 265.066 223.409 264.94 223.451C264.793 223.492 266.412 225.072 268.556 226.963C270.7 228.854 272.466 230.434 272.466 230.496C272.445 230.558 269.796 231.764 266.58 233.198C263.238 234.653 260.799 235.837 260.947 235.92C261.493 236.211 264.835 236.523 267.316 236.523C271.646 236.523 275.514 235.65 279.087 233.884C283.585 231.66 287.348 227.857 289.807 223.014C290.501 221.664 291.594 219.045 291.594 218.754C291.594 218.546 290.27 218.754 277.931 221.019Z" fill="#FE4600"/>
<path d="M237.256 225.737C230.551 226.34 223.888 228.272 217.813 231.348C215.648 232.429 214.218 233.468 203.918 241.552C197.612 246.499 190.381 252.172 187.859 254.126C185.336 256.1 183.424 257.721 183.613 257.721C184.412 257.721 190.003 256.141 192.588 255.186C201.165 252.006 208.312 247.725 214.386 242.072C217.245 239.433 219.368 237.999 223.089 236.232C231.371 232.304 242.638 229.956 256.595 229.291L259.538 229.145L257.751 228.439C255.418 227.524 251.067 226.444 248.061 226.028C245.055 225.612 239.989 225.467 237.256 225.737Z" fill="#FE4600"/>
<path d="M161.037 229.831C142.182 246.145 121.393 258.843 103.925 264.683L100.688 265.764L102.622 265.868C105.27 266.034 110.147 265.722 113.51 265.223C125.849 263.353 137.515 257.804 147.08 249.263C152.545 244.379 157.569 238.227 161.668 231.431C163.37 228.626 164.064 227.379 163.938 227.379C163.896 227.379 162.593 228.48 161.037 229.831Z" fill="#FE4600"/>
<path d="M261.64 241.199C247.073 242.384 232.926 244.815 223.068 247.891C218.759 249.242 213.44 251.424 213.756 251.715C213.84 251.798 216.425 252.629 219.494 253.564C222.563 254.5 225.149 255.31 225.233 255.372C225.464 255.518 223.404 256.474 219.494 258.033C210.077 261.794 201.417 264.101 192.252 265.286C190.465 265.535 189.667 265.764 187.102 266.865C180.397 269.733 175.478 272.31 170.58 275.51C164.19 279.688 159.482 284.177 157.569 287.917L157.043 288.915L157.737 288.603C158.115 288.437 159.713 287.73 161.268 287.024C172.178 282.119 185.126 278.087 192.799 277.256C195.426 276.965 203.183 274.866 210.119 272.58C234.44 264.579 253.085 254.396 262.628 243.901C264.373 242.009 265.36 240.783 265.066 240.908C265.024 240.929 263.49 241.053 261.64 241.199Z" fill="#FE4600"/>
<path d="M319.025 243.007C317.974 245.646 311.227 257.492 303.323 270.564C295.714 283.158 294.768 284.634 293.381 286.213C291.279 288.583 285.015 294.298 274.294 303.65C268.03 309.095 262.922 316.784 258.949 326.718C257.31 330.833 254.787 338.73 254.808 339.748C254.808 339.832 255.187 339.25 255.628 338.418C260.82 329.046 278.729 308.492 299.371 288.271C302.566 285.133 305.783 281.787 306.476 280.852C314.086 270.834 318.5 258.24 319.425 243.838C319.488 242.903 319.509 242.134 319.467 242.134C319.425 242.134 319.235 242.529 319.025 243.007Z" fill="#FE4600"/>
<path d="M274.231 245.231C272.97 245.896 270.973 247.018 269.817 247.745C263.931 251.403 253.316 258.885 250.856 261.088C246.19 265.307 238.707 270.17 229.5 274.991L226.179 276.737L227.461 276.799C230.025 276.924 235.554 275.739 239.569 274.201C250.037 270.19 260.904 262.189 271.666 250.551C274.021 248.016 277.09 244.379 277.09 244.15C277.09 243.838 276.438 244.067 274.231 245.231Z" fill="#FE4600"/>
<path d="M291.383 244.441C286.213 245.189 281.21 249.928 277.258 257.825C276.207 259.903 275.114 262.501 275.24 262.626C275.387 262.75 279.108 260.589 281.042 259.217C285.897 255.83 290.311 250.863 292.519 246.291C293.612 244.046 293.654 244.109 291.383 244.441Z" fill="#FE4600"/>
<path d="M303.786 251.424C298.573 255.809 276.291 272.123 273.832 273.349C263.153 278.669 254.22 285.382 250.646 290.744C249.448 292.552 248.586 294.443 248.755 294.921C248.797 295.025 252.601 293.113 257.205 290.661C261.829 288.208 265.634 286.234 265.676 286.255C265.718 286.296 264.162 289.601 262.25 293.591C260.337 297.581 258.676 301.052 258.592 301.28C258.487 301.551 263.574 297.872 270.658 292.552C277.405 287.523 283.396 283.138 283.942 282.847C286.927 281.267 291.11 277.381 294.074 273.432C298.047 268.133 301.831 260.755 304.437 253.17C305.005 251.528 305.446 250.156 305.425 250.135C305.383 250.115 304.647 250.696 303.786 251.424Z" fill="#FE4600"/>
<path d="M356.441 263.644C356.525 269.13 356.63 273.661 356.672 273.702C356.714 273.744 358.186 273.12 359.93 272.289C361.675 271.458 363.125 270.814 363.167 270.855C363.231 270.918 364.113 278.067 364.113 278.565C364.113 278.836 364.24 278.836 365.333 278.565C372.416 276.757 379.773 270.834 384.251 263.332C385.47 261.316 387.53 256.973 387.404 256.702C387.362 256.619 383.368 259.529 378.533 263.166C373.699 266.803 369.663 269.775 369.579 269.775C369.474 269.775 369.453 269.421 369.516 268.985C369.558 268.569 369.768 266.803 369.978 265.057L370.335 261.919L369.915 262.085C369.663 262.189 368.128 262.875 366.468 263.623L363.483 264.974L362.915 264.101C362.621 263.623 361.044 261.129 359.426 258.552C357.807 255.975 356.441 253.835 356.399 253.772C356.336 253.71 356.357 258.157 356.441 263.644Z" fill="#FE4600"/>
<path d="M347.529 259.903C345.154 273.038 342.358 284.634 341.097 286.525C340.697 287.149 340.193 287.17 339.941 286.546C339.835 286.297 339.499 283.138 339.205 279.542C338.911 275.947 338.616 272.663 338.553 272.269L338.427 271.541L336.64 273.412C328.043 282.431 322.998 294.921 321.863 309.988C321.632 313.168 321.611 318.26 321.821 320.047L321.968 321.19L326.677 308.513C329.262 301.551 331.469 295.773 331.575 295.669C331.659 295.545 331.743 295.649 331.743 295.919C331.743 297.062 332.457 303.006 332.92 305.707C333.887 311.422 335.211 315.807 337.061 319.299C338.049 321.19 339.92 323.559 340.781 324.016C341.139 324.203 341.139 324.141 340.76 322.957C339.856 320.089 339.856 314.831 340.781 308.326C341.748 301.509 343.976 291.866 345.826 286.401C347.529 281.392 348.286 277.069 348.517 271.188C348.664 267.489 348.496 261.067 348.202 258.552L348.033 257.201L347.529 259.903Z" fill="#FE4600"/>
<path d="M316.166 279.916C301.894 301.966 300.275 304.668 297.816 310.757C293.149 322.27 291.573 332.828 293.086 342.762C293.212 343.655 293.381 344.383 293.465 344.383C293.528 344.383 294.137 342.118 294.831 339.333C298.825 323.039 303.701 309.863 307.821 304.273C310.302 300.906 323.019 275.718 327.496 265.286C328.758 262.355 329.935 259.176 329.788 259.051C329.746 259.009 323.629 268.403 316.166 279.916Z" fill="#FE4600"/>
<path d="M257.436 272.102C255.46 272.58 251.803 273.869 249.659 274.825C232.969 282.389 216.257 299.971 201.859 325.097C201.396 325.928 201.27 326.302 201.459 326.302C201.627 326.302 204.339 325.783 207.513 325.159C210.687 324.536 213.357 324.016 213.483 324.016C213.588 324.016 213.273 324.369 212.747 324.785C203.645 332.433 194.207 341.681 188.973 348.124C185.316 352.654 182.73 357.164 182.142 360.136C181.826 361.674 181.889 363.295 182.247 363.295C182.541 363.274 193.261 355.46 198.516 351.407C214.786 338.938 226.852 327.695 233.431 318.945C235.932 315.599 238.224 311.214 238.56 309.115C238.644 308.575 238.602 308.43 238.329 308.43C238.139 308.43 235.869 308.762 233.242 309.178C230.635 309.593 228.449 309.863 228.386 309.801C227.987 309.406 229.353 304.502 230.782 301.176C235.386 290.494 245.013 280.477 258.592 272.31C259.286 271.894 259.286 271.853 258.802 271.873C258.508 271.894 257.899 271.977 257.436 272.102Z" fill="#FE4600"/>
<path d="M353.141 285.652C348.853 291.887 346.898 297.519 347.528 301.945C347.907 304.626 348.853 306.455 350.766 308.201L351.775 309.115L352.174 308.097C352.783 306.58 353.75 302.61 354.108 300.117C354.759 295.69 355.222 286.795 354.907 284.488L354.759 283.304L353.141 285.652Z" fill="#FE4600"/>
<path d="M190.802 284.883C185.82 285.299 178.253 286.837 173.565 288.375C168.667 289.996 162.53 292.739 159.292 294.776L157.863 295.69L158.809 295.815C163.707 296.48 172.703 296.501 177.454 295.856C183.823 295.004 189.982 293.425 195.279 291.264C198.831 289.809 203.939 287.149 205.768 285.756C206.231 285.424 206.189 285.403 204.402 285.154C202.594 284.904 192.82 284.696 190.802 284.883Z" fill="#FE4600"/>
<path d="M212.137 290.91C205.39 294.755 195.784 298.641 188.132 300.615C182.078 302.195 177.853 302.735 170.034 302.922C161.226 303.13 154.058 304.065 146.617 305.956C137.074 308.367 128.918 312.087 122.801 316.805C119.753 319.153 114.12 325.055 114.919 325.055C115.087 325.055 120.699 324.12 127.384 322.956C134.047 321.813 139.828 320.816 140.206 320.753C140.879 320.629 140.816 320.733 137.684 324.868C132.681 331.456 129.843 335.924 128.792 338.896C128.351 340.122 128.098 341.681 128.33 341.681C128.372 341.681 131.209 340.268 134.636 338.543C146.891 332.391 156.181 328.568 163.896 326.489C169.487 324.972 182.919 318.467 191.012 313.355C202.132 306.331 209.867 298.849 213.399 291.679C213.882 290.702 214.239 289.871 214.197 289.829C214.176 289.809 213.23 290.287 212.137 290.91Z" fill="#FE4600"/>
<path d="M314.148 307.141C312.845 309.843 311.773 312.191 311.731 312.337C311.668 312.607 314.779 314.145 314.863 313.875C314.989 313.521 316.608 302.34 316.545 302.278C316.503 302.236 315.43 304.419 314.148 307.141Z" fill="#FE4600"/>
<path d="M287.852 308.97C282.723 314.145 277.426 322.499 270.468 336.382C267.105 343.136 264.499 348.706 261.304 356.083C258.76 361.923 254.787 371.649 254.892 371.753C254.934 371.795 256.721 369.758 258.865 367.202C260.988 364.646 264.898 359.991 267.526 356.852C270.153 353.714 272.36 351.116 272.444 351.096C272.507 351.054 274.273 352.53 276.333 354.359C278.393 356.187 280.138 357.663 280.18 357.621C280.222 357.559 280.117 356.728 279.949 355.751C277.657 342.845 281.042 325.741 289.092 309.573C289.87 307.993 290.48 306.642 290.417 306.58C290.375 306.518 289.218 307.598 287.852 308.97Z" fill="#FE4600"/>
<path d="M309.923 321.356C306.833 325.222 304.836 329.482 303.386 335.259C302.02 340.725 301.473 347.417 301.873 353.672C302.146 358.203 302.272 359.138 302.608 359.138C302.966 359.138 304.248 357.767 304.92 356.686C305.677 355.481 306.644 353.07 307.401 350.514C307.947 348.685 308.221 346.669 309.545 334.241C310.365 326.448 311.037 320.068 311.016 320.068C310.995 320.068 310.491 320.649 309.923 321.356Z" fill="#FE4600"/>
<path d="M244.782 324.64C238.875 327.819 233.977 332.184 230.404 337.483C227.776 341.37 226.242 344.778 225.464 348.519C223.614 357.393 219.663 366.184 215.08 371.712C214.408 372.501 213.062 373.935 212.074 374.871C211.107 375.827 210.372 376.595 210.477 376.595C210.876 376.595 213.861 375.432 215.396 374.663C221.176 371.816 227.398 366.142 232.065 359.471C237.257 352.072 241.65 342.388 244.719 331.602C245.581 328.547 246.611 324.411 246.611 324.016C246.611 323.684 246.4 323.767 244.782 324.64Z" fill="#FE4600"/>
<path d="M253.568 343.884C253.568 344.113 253.632 344.175 253.695 344.009C253.758 343.863 253.737 343.676 253.674 343.614C253.61 343.531 253.547 343.655 253.568 343.884Z" fill="#FE4600"/>
<path d="M242.007 400.495C236.205 401.7 232.506 405.608 230.887 412.154C230.635 413.11 229.584 419.158 228.512 425.6C227.44 432.022 226.515 437.238 226.452 437.155C226.389 437.093 223.719 428.988 220.524 419.137L214.723 401.222L203.182 401.16L191.621 401.119L190.507 407.914C189.898 411.676 188.426 420.758 187.228 428.136C186.03 435.513 184.327 445.946 183.465 451.329C182.583 456.732 181.868 461.242 181.868 461.366C181.868 461.533 184.39 461.595 190.97 461.595H200.05L202.762 444.076C204.254 434.453 205.558 426.286 205.621 425.953C205.768 425.288 205.936 425.808 214.176 450.83L217.707 461.595H229.163H240.619L245.517 431.44C248.208 414.835 250.352 401.202 250.247 401.119C249.637 400.557 243.794 400.121 242.007 400.495Z" fill="#FE4600"/>
<path d="M343.619 400.744L342.547 400.931L337.67 431.211C334.979 447.858 332.772 461.553 332.793 461.657C332.793 461.74 336.892 461.782 341.874 461.761L350.976 461.699L352.132 453.178L353.288 444.657L354.234 443.805C359.153 439.379 363.777 435.43 363.903 435.555C363.987 435.638 365.207 438.61 366.636 442.163C368.065 445.696 369.726 449.604 370.314 450.83C375.212 460.722 382.191 464.567 391.398 462.426C392.407 462.198 393.353 461.927 393.479 461.844C393.668 461.72 391.503 456.503 385.554 442.787C381.035 432.375 377.293 423.667 377.23 423.439C377.125 423.065 378.954 421.34 388.644 412.653C394.971 406.958 400.5 401.991 400.899 401.617L401.635 400.911L392.596 400.931H383.557L370.209 413.068C362.873 419.739 356.798 425.205 356.735 425.205C356.672 425.226 357.03 422.732 357.534 419.656C358.585 413.172 358.69 410.491 358.039 407.914C357.471 405.774 356.925 404.776 355.474 403.363C353.393 401.306 350.976 400.474 347.087 400.516C345.763 400.537 344.186 400.641 343.619 400.744Z" fill="#FE4600"/>
<path d="M4.47842 427.325C1.09416 448.253 0.232334 453.968 0.337435 454.778C0.8209 458.27 3.65863 460.286 9.62838 461.325C11.4782 461.657 13.2859 461.699 26.0031 461.699C41.5581 461.699 41.9785 461.678 46.3087 460.452C51.5427 458.976 55.7678 456.192 57.1761 453.241C57.8278 451.911 60.0139 438.402 59.8457 436.864C59.4463 433.352 56.5245 430.629 51.816 429.362C50.9121 429.112 50.1554 428.905 50.1133 428.863C50.0713 428.842 50.744 428.593 51.5848 428.343C56.3564 426.93 59.8037 423.938 61.0018 420.197C61.4432 418.825 62.6834 411.364 62.6834 410.055C62.6834 408.538 62.0739 407.333 60.4973 405.774C58.6476 403.945 56.4404 402.823 52.9721 401.95C49.0834 400.994 47.2336 400.911 27.2644 400.911H8.74553L4.47842 427.325ZM41.411 409.619C42.9244 410.076 43.8703 410.699 44.3118 411.531C44.606 412.112 44.564 412.487 43.8493 416.872C43.4289 419.469 42.9454 421.859 42.7773 422.171C42.3779 422.94 40.8434 423.896 39.1618 424.395C37.9426 424.769 37.2069 424.81 30.3964 424.81C26.2974 424.81 22.9552 424.727 22.9552 424.623C22.9552 424.395 25.2464 410.304 25.3725 409.681L25.4776 409.224H32.8137C39.393 409.224 40.2759 409.265 41.411 409.619ZM39.0147 433.414C40.381 433.83 41.6422 434.682 41.9575 435.409C42.3359 436.303 40.2759 450.29 39.6453 451.142C39.0987 451.89 37.4592 452.763 35.8826 453.178C34.222 453.594 18.3308 453.656 18.3308 453.22C18.3308 452.929 21.4838 433.788 21.6099 433.373C21.715 432.978 37.6483 433.019 39.0147 433.414Z" fill="#FE4600"/>
<path d="M147.921 401.139C139.555 401.991 131.966 405.961 130.684 410.159C130.495 410.72 128.834 420.695 126.984 432.292C123.873 451.744 123.621 453.469 123.852 454.446C124.588 457.833 128.813 460.514 135.498 461.865C137.747 462.301 138.23 462.322 149.707 462.322C160.259 462.322 161.836 462.281 163.875 461.948C170.854 460.784 176.697 457.792 178.421 454.508C178.841 453.698 185.862 411.967 185.862 410.263C185.841 405.795 179.829 402.012 171.358 401.118C168.983 400.869 150.338 400.89 147.921 401.139ZM165.788 410.367C166.46 410.699 167.217 411.239 167.448 411.551L167.848 412.112L164.779 431.481C163.076 442.122 161.563 451.079 161.416 451.37C161.037 452.139 159.839 453.012 158.431 453.531C157.275 453.968 156.749 454.009 151.872 454.072C146.05 454.155 144.683 453.968 143.128 452.949C141.467 451.869 141.341 453.427 144.936 431.731C148.467 410.387 148.173 411.614 149.96 410.741C151.977 409.743 152.797 409.639 158.851 409.702L164.527 409.743L165.788 410.367Z" fill="#FE4600"/>
<path d="M289.092 401.14C286.129 401.514 283.312 402.657 281.903 404.049C280.474 405.462 280.138 406.772 280.789 408.393L281.126 409.224H290.585H300.044L299.918 409.785C299.855 410.117 297.942 421.672 295.693 435.513C293.444 449.334 291.552 460.909 291.51 461.221L291.405 461.803H300.38H309.377L313.665 435.513L317.953 409.224H327.16H336.367L336.472 408.746C336.766 407.416 337.838 401.555 337.838 401.264C337.838 400.932 336.199 400.911 314.148 400.932C301.095 400.953 289.828 401.036 289.092 401.14Z" fill="#FE4600"/>
<path d="M403.442 427.325C398.797 456.025 398.923 454.924 400.016 456.877C401.319 459.247 404.178 460.618 409.517 461.429C412.082 461.824 438.084 461.824 440.627 461.429C444.768 460.805 448.51 459.579 451.348 457.937C453.05 456.961 455.531 454.529 456.119 453.261C456.455 452.555 457.443 446.943 459.945 431.44C461.816 419.968 463.329 410.325 463.329 410.034C463.329 407.021 459.987 403.903 455.152 402.386C450.78 401.015 451.663 401.056 428.646 400.973L407.71 400.89L403.442 427.325ZM442.897 409.826C444.201 410.408 445.252 411.51 445.252 412.279C445.252 413.193 439.156 450.019 438.904 450.663C438.609 451.391 437.39 452.285 435.814 452.908C434.657 453.365 434.426 453.386 425.976 453.448C418.115 453.511 417.295 453.49 417.295 453.178C417.295 452.825 424.147 410.533 424.337 409.681L424.463 409.203L433.123 409.265C441.72 409.328 441.783 409.328 442.897 409.826Z" fill="#FE4600"/>
<path d="M65.437 431.378C62.5362 449.146 60.6023 461.699 60.7075 461.803C60.8126 461.907 61.7374 462.135 62.7674 462.322C70.0194 463.569 75.6739 460.598 78.8479 453.864C80.1301 451.183 80.6557 448.959 81.9169 441.228C82.5475 437.28 83.115 433.851 83.1781 433.581L83.2832 433.123H91.4601C100.289 433.123 100.772 433.186 102.454 434.266C103.988 435.264 104.009 434.62 101.97 448.128C100.961 454.799 100.078 460.598 100.015 461.013L99.8892 461.803H108.802H117.714L117.84 461.221C117.903 460.909 118.765 455.568 119.753 449.334C121.75 436.823 121.771 436.656 120.678 434.433C119.543 432.105 117 430.339 113.405 429.362C112.501 429.112 111.745 428.905 111.703 428.863C111.66 428.842 112.333 428.593 113.174 428.343C117.84 426.951 121.33 423.958 122.549 420.321C123.18 418.472 124.357 410.824 124.21 409.577C123.831 406.48 119.985 403.529 114.561 402.158C110.673 401.202 108.823 401.119 88.8535 401.119H70.3347L65.437 431.378ZM103.568 410.013C104.766 410.554 105.733 411.385 106.006 412.092C106.237 412.674 104.892 421.007 104.409 422.067C104.009 422.898 102.538 423.854 100.751 424.395C99.5318 424.769 98.7961 424.81 91.9856 424.81C87.8866 424.81 84.5444 424.748 84.5444 424.665C84.5444 424.436 86.8356 410.45 86.9617 409.889L87.0878 409.411L94.8023 409.473C102.349 409.535 102.538 409.556 103.568 410.013Z" fill="#FE4600"/>
</svg>
