<svg width="108" height="110" viewBox="0 0 108 110" fill="none" xmlns="http://www.w3.org/2000/svg">
<path d="M41.4655 0.132211C41.4655 0.58761 42.3115 1.90023 42.9834 2.51636C44.3021 3.72183 45.6209 4.28439 47.7609 4.57906C52.19 5.1684 55.0017 6.7489 57.067 9.77597L57.6144 10.5796L57.3905 9.69561C56.7435 7.12394 54.6783 4.31117 52.7125 3.23965C52.2149 2.97176 50.6721 2.62352 49.3285 2.436C47.0144 2.14133 42.635 0.828704 42.1125 0.239364C41.8388 -0.0285187 41.4655 -0.0820951 41.4655 0.132211Z" fill="#FF6B42"/>
<path d="M58.311 2.43603C58.8833 3.23967 59.4805 4.23084 59.7045 4.68624C60.1275 5.62383 61.1228 9.82958 61.1228 10.7672C61.1228 11.1154 61.2223 11.544 61.3219 11.7315C61.6702 12.2941 62.1679 10.7672 62.2923 8.70447C62.4167 7.15076 62.3421 6.61499 61.8693 5.57025C61.2472 4.0969 59.7791 2.4896 58.311 1.60559L57.3157 0.989461L58.311 2.43603Z" fill="#FF6B42"/>
<path d="M31.786 2.81108C30.8902 3.02538 30.094 3.29327 29.9696 3.42721C29.8452 3.56115 31.2884 3.80224 33.1794 3.98976C35.0457 4.17728 37.3846 4.49874 38.3302 4.68625C39.3006 4.90056 40.1466 4.98092 40.2213 4.92735C40.4203 4.71304 39.2011 3.77545 37.9818 3.18611C36.5137 2.46283 33.8264 2.3021 31.786 2.81108Z" fill="#FF6B42"/>
<path d="M65.6017 3.69503C65.6017 3.82897 65.7759 4.41831 65.9998 4.98087C66.2984 5.75773 66.3731 6.66853 66.2984 8.73122C66.2486 10.2314 66.2984 11.41 66.3979 11.3297C66.8209 11.0618 67.866 8.51691 67.9904 7.4186C68.09 6.61495 67.9904 6.0524 67.667 5.40948C67.2191 4.52547 65.6017 3.18606 65.6017 3.69503Z" fill="#FF6B42"/>
<path d="M43.68 6.26675C43.8791 6.50784 45.1232 7.49901 46.4669 8.4366C49.6021 10.66 52.9364 14.7318 51.5927 14.7318C51.4434 14.7318 50.5228 14.5443 49.5524 14.33C48.6068 14.1157 47.7857 14.0085 47.7359 14.0621C47.512 14.3032 49.3035 16.6874 50.2242 17.4374C51.4683 18.375 51.742 18.4018 52.2646 17.5446C52.7871 16.6874 53.5834 16.6874 54.7777 17.5714L55.7233 18.2411L55.5491 16.3123C55.2505 12.7227 54.6782 11.169 53.1604 9.72243C52.2148 8.81163 49.9256 7.57937 48.8059 7.39186C47.9599 7.23113 46.666 6.85609 43.8293 5.97208C43.3814 5.83814 43.3814 5.86493 43.68 6.26675Z" fill="#FF6B42"/>
<path d="M36.7377 8.9456C35.1203 9.29385 31.587 10.3118 30.6414 10.7404C29.6959 11.1422 33.9757 10.9815 35.9415 10.5529C37.3349 10.2314 38.6786 10.1511 40.918 10.2314C42.5852 10.3118 43.9537 10.3118 43.9537 10.285C43.9537 9.99034 41.8636 9.10633 40.5945 8.86524C38.8776 8.51699 38.8527 8.51699 36.7377 8.9456Z" fill="#FF6B42"/>
<path d="M33.2542 13.0978C32.7815 13.2049 31.7115 13.5264 30.8904 13.7943C29.8453 14.1425 28.6012 14.3032 26.7847 14.3032C24.396 14.3032 23.6246 14.1693 20.8875 13.2317C20.6387 13.1513 20.8875 13.3924 21.4349 13.7675C22.9279 14.7854 24.8688 15.3212 27.78 15.4551C29.6462 15.5623 30.8655 15.4819 32.0599 15.1605C34.5979 14.5175 37.335 14.3836 40.3458 14.7051C41.8637 14.8658 43.3566 15.0801 43.705 15.1605L44.3271 15.3212L43.7548 14.7586C42.5106 13.58 40.5449 13.0442 37.2355 12.9638C35.5186 12.9103 33.727 12.9906 33.2542 13.0978Z" fill="#FF6B42"/>
<path d="M70.9515 13.0442C70.205 13.1513 67.5923 13.9282 67.5923 14.0085C67.5923 14.0353 69.3093 14.0621 71.3994 14.0621C75.4304 14.0889 77.9685 14.5443 80.6558 15.8034L81.8999 16.3659L81.1534 15.5355C80.7553 15.0801 79.6854 14.33 78.7896 13.8478C77.3215 13.0977 76.9234 13.0174 74.4351 12.9638C72.9421 12.937 71.3745 12.9638 70.9515 13.0442Z" fill="#FF6B42"/>
<path d="M90.808 16.5802C89.8127 16.8749 88.6929 17.3035 88.3197 17.5446C87.6727 17.9464 87.7723 17.9464 90.4845 17.8125C93.0474 17.6785 98.87 17.9732 100.811 18.375L101.557 18.5358L100.935 17.9732C98.9695 16.232 94.2667 15.5891 90.808 16.5802Z" fill="#FF6B42"/>
<path d="M24.5451 16.9017C23.923 17.0088 22.878 17.116 22.1813 17.1428L20.9371 17.1696L21.6338 17.7053C22.6043 18.509 22.4798 18.9108 21.1362 19.2591C19.469 19.6877 15.662 20.0359 14.4676 19.902L13.4723 19.7948L14.1939 20.3038C15.3883 21.1878 16.8812 21.5093 19.3695 21.3753C20.9371 21.295 22.1564 21.0539 23.1766 20.6253C25.839 19.5537 28.601 18.7233 31.2386 18.2411C32.6818 17.9732 33.7269 17.7053 33.5776 17.5982C32.2837 16.741 27.3569 16.3391 24.5451 16.9017Z" fill="#FF6B42"/>
<path d="M42.5355 19.902C44.6505 22.0183 44.9491 22.6612 43.6552 22.3933C37.8575 21.2414 35.2946 21.161 32.2589 22.0451C30.965 22.4201 29.4471 22.8219 28.8997 22.9023L27.9044 23.1166L28.7753 23.5452C29.5218 23.9202 30.542 23.9738 35.3941 23.8934C40.3956 23.8399 41.366 23.8934 43.0331 24.3488C46.7904 25.3936 48.0843 26.4115 50.4731 30.2155C52.1402 32.8675 52.2895 33.0282 52.3642 32.2782C52.5135 30.6977 52.613 30.6977 54.1806 32.2514C55.9473 34.0194 58.1618 35.3052 59.829 35.5195L60.9985 35.6803L59.7543 34.5284C56.6938 31.7156 55.2754 29.9208 54.1806 27.4831C52.2398 23.1702 48.4576 19.9288 43.705 18.509C42.6848 18.1876 41.5651 17.9465 41.2167 17.9465C40.6693 17.9732 40.8186 18.1876 42.5355 19.902Z" fill="#FF6B42"/>
<path d="M82.4474 20.1163C82.3728 20.4645 82.4225 20.6252 82.5967 20.5449C82.9699 20.4109 83.1441 19.5537 82.8207 19.5537C82.6962 19.5537 82.5221 19.7948 82.4474 20.1163Z" fill="#FF6B42"/>
<path d="M103.672 21.1074C103.324 21.161 102.677 21.5093 102.254 21.8575C101.184 22.7415 101.109 24.2149 102.08 25.206C102.627 25.7686 102.951 25.849 104.469 25.849C105.986 25.849 106.26 25.9293 106.683 26.4919C106.932 26.8401 107.156 27.2955 107.156 27.5098C107.156 28.3135 107.629 27.5366 107.878 26.3044C108.201 24.6435 107.878 23.1434 106.982 22.2058C106.26 21.4289 104.767 20.9467 103.672 21.1074Z" fill="#FF6B42"/>
<path d="M76.0524 22.9558C73.2158 23.6523 71.2003 24.4828 71.4242 24.8846C71.6481 25.2596 75.6543 25.7686 77.6698 25.6615C79.0383 25.6079 79.6853 25.4204 80.2078 25.0185C81.1285 24.2953 81.2529 23.2237 80.4815 22.6612C79.7599 22.1254 79.2374 22.1522 76.0524 22.9558Z" fill="#042573"/>
<path d="M93.4207 22.6879C92.3258 22.8754 92.5995 23.1969 94.1672 23.5719C94.9385 23.7595 96.2075 24.0809 96.954 24.2684C97.7005 24.456 98.3723 24.5631 98.447 24.4827C98.6958 24.1881 97.1033 23.063 96.0582 22.7951C94.9883 22.5004 94.6648 22.5004 93.4207 22.6879Z" fill="#FF6B42"/>
<path d="M38.3302 27.2687C37.4842 27.8581 36.4889 28.7956 36.0908 29.3582C35.419 30.2958 35.3692 30.5101 35.3692 32.921C35.3692 35.198 35.4438 35.6534 36.0659 36.8857C36.4392 37.6625 37.4345 39.002 38.3054 39.886C41.8885 43.556 44.1279 45.0025 46.666 45.2168L48.2585 45.3508L45.6707 42.5648C42.9336 39.6449 41.1669 37.0732 40.6941 35.332C40.4453 34.4747 40.4702 34.0997 40.8185 33.0818C41.8885 30.1083 44.2026 28.7689 46.5913 29.7332C47.5369 30.1351 47.6115 29.894 46.8899 28.876C45.8448 27.4027 43.904 26.4383 41.7143 26.3043C39.873 26.1972 39.8232 26.224 38.3302 27.2687Z" fill="#FF6B42"/>
<path d="M9.26716 26.9473C5.63427 27.8045 2.94694 29.7333 1.72768 32.3853C1.40421 33.055 1.20514 33.6176 1.25491 33.6712C1.30467 33.7247 2.17557 33.2961 3.22065 32.7336C7.57513 30.3226 13.6216 29.7869 19.8921 31.2334C23.1268 31.9835 28.0039 31.2334 31.3133 29.4654C33.702 28.1796 36.0659 26.1169 34.548 26.6526C33.279 27.0545 29.895 27.617 27.6555 27.751C25.64 27.8849 24.4456 27.7778 21.3104 27.2152C16.8564 26.4116 12.1038 26.3044 9.26716 26.9473Z" fill="#042573"/>
<path d="M77.5455 27.1348C76.4507 27.5098 76.1023 27.7241 76.4755 27.8045C77.1723 27.9116 78.7896 27.4562 79.4117 26.9472C80.1084 26.3847 79.5361 26.4383 77.5455 27.1348Z" fill="#FF6B42"/>
<path d="M89.2403 29.2243C90.7332 29.4922 91.9276 29.4654 90.6088 29.1707C90.0614 29.0635 89.29 28.9564 88.867 28.9832C88.3196 28.9832 88.3942 29.0635 89.2403 29.2243Z" fill="#FF6B42"/>
<path d="M28.6508 33.1353C26.2372 34.0193 22.4052 34.823 20.6386 34.823C19.7428 34.823 18.3494 34.5551 17.0555 34.1265C15.2639 33.5104 14.5174 33.4032 11.7305 33.4032C7.12723 33.3764 3.69341 34.4212 1.47885 36.5106C0.632834 37.3143 -0.287829 38.8412 0.0854129 38.8412C0.209827 38.8412 1.13049 38.5465 2.20045 38.1715C3.24552 37.8233 5.03708 37.3679 6.18169 37.2071C8.14743 36.8857 8.44602 36.9125 12.3526 37.7429C14.7165 38.2519 17.6278 38.6805 19.1954 38.7609C21.7832 38.8948 22.032 38.868 23.9977 38.0911C26.6602 37.0196 28.7504 35.6534 30.0194 34.0997C31.5621 32.1977 31.4377 32.0906 28.6508 33.1353Z" fill="#042573"/>
<path d="M86.8019 34.6087C84.1643 35.4123 84.7615 35.4659 87.6479 34.7158C88.9916 34.3676 89.7878 34.0729 89.3648 34.0729C88.9667 34.0729 87.7972 34.314 86.8019 34.6087Z" fill="#FF6B42"/>
<path d="M103.473 38.0377C101.557 39.9932 98.2231 42.4041 97.6507 42.2702C97.4517 42.2166 96.6554 42.9399 95.8592 43.8507C95.0878 44.7615 93.6197 46.1813 92.5995 47.0117C88.2948 50.5745 86.5033 54.432 87.4737 58.0752C88.2948 61.1559 92.2014 66.1921 96.0831 69.1656C98.1733 70.7461 100.438 72.1391 100.637 71.9515C100.861 71.6837 100.039 70.7193 95.1376 65.4152C89.6385 59.4682 88.7427 58.102 88.6681 55.6375C88.5934 53.4141 89.1906 51.9943 90.9573 50.0656C92.8981 48.0029 93.8935 47.226 94.2169 47.5743C94.3662 47.735 94.3662 48.4315 94.2169 49.4226C93.8437 51.8604 93.9681 52.0747 94.4409 49.8245C94.6897 48.7262 95.0132 47.5743 95.1625 47.2528C95.5855 46.3956 97.2526 44.8686 99.4921 43.3149C101.632 41.8148 103.424 39.9664 104.469 38.1448C105.016 37.2072 105.489 36.1357 105.34 36.1625C105.315 36.1893 104.469 37.0197 103.473 38.0377Z" fill="#FF6B42"/>
<path d="M104.717 39.4306C103.971 40.3146 103.647 41.4397 103.822 42.5648C104.095 44.3596 104.966 47.6814 105.165 47.6814C105.563 47.6814 106.409 43.2881 106.409 41.279C106.409 40.1271 105.912 38.8412 105.439 38.8412C105.339 38.8412 105.016 39.1091 104.717 39.4306Z" fill="#FF6B42"/>
<path d="M6.45542 40.7164C6.13195 40.8504 5.88312 41.0647 5.88312 41.1718C5.88312 41.6004 8.52069 43.2613 10.6108 44.1721C12.4024 44.949 13.0991 45.1097 15.2141 45.2168C17.3043 45.2972 17.9513 45.2436 19.2949 44.7346C21.0616 44.0917 23.0273 42.8059 24.1471 41.5468C24.9931 40.5825 24.9682 40.5825 23.0771 41.0914C20.3898 41.8147 19.2949 41.8415 16.085 41.2522C12.5766 40.6093 7.27655 40.3146 6.45542 40.7164Z" fill="#042573"/>
<path d="M89.4892 42.163C89.3399 42.3773 89.0662 42.5112 88.9169 42.4577C88.7427 42.4041 88.3695 42.9131 88.0709 43.6095L87.5234 44.8686L88.2202 43.9578L88.9169 43.0202L89.8127 43.4756C90.7333 43.9578 93.0972 44.0917 93.3211 43.6899C93.3958 43.556 92.8732 43.3685 92.1765 43.2613C90.1859 42.9934 89.9371 42.8863 90.0615 42.2969C90.2108 41.7076 89.9122 41.6272 89.4892 42.163Z" fill="#FF6B42"/>
<path d="M65.8505 45.4044C65.8505 45.4579 66.3233 45.7794 66.9205 46.1009C67.4928 46.4223 68.6872 47.4938 69.5829 48.4582C71.1506 50.1727 71.2252 50.3066 71.897 52.9051C72.7182 56.1732 74.2111 59.5218 75.5299 61.1023L76.5501 62.2809L75.0571 59.0664C74.0867 56.9769 73.3402 54.9142 72.9421 53.1729C72.5938 51.6996 72.1707 50.1191 72.0214 49.6905C71.474 48.2707 69.6327 46.3955 68.1895 45.8062C66.8956 45.2972 65.8505 45.1097 65.8505 45.4044Z" fill="#FF6B42"/>
<path d="M51.2941 46.717C50.8711 47.0385 50.9457 47.092 51.941 47.226C54.3298 47.5742 56.3951 47.735 56.3951 47.5742C56.3951 47.4671 55.9223 47.1456 55.35 46.8777C54.1058 46.2616 51.9659 46.1812 51.2941 46.717Z" fill="#FF6B42"/>
<path d="M17.5779 47.5474C16.284 47.7349 14.6666 48.11 13.9699 48.3511C11.9544 49.0743 4.8877 52.8247 5.037 53.0658C5.36047 53.6551 9.9389 53.039 12.676 52.0746C13.3478 51.8335 13.945 51.6996 14.0197 51.8067C14.0943 51.8871 13.9699 52.4229 13.746 53.039C13.4225 53.923 13.4225 54.1105 13.6962 54.1105C14.5173 54.1105 17.9014 53.039 19.1206 52.3961C20.8127 51.5121 23.7737 50.8959 26.4113 50.8959C29.5963 50.8959 32.1592 50.4138 34.0005 49.503L35.6179 48.6725L32.2587 48.3511C30.4174 48.1635 27.954 47.8153 26.8094 47.5742C24.3709 47.0652 20.8873 47.0652 17.5779 47.5474Z" fill="#FF6B42"/>
<path d="M50.6223 50.6281C45.7702 51.4585 40.296 54.6731 35.5931 59.495C33.5278 61.6113 32.6072 62.3345 30.9649 63.1918C28.3025 64.558 26.486 65.2009 23.4254 65.8974C20.2653 66.5939 18.847 67.1028 16.8066 68.2012C15.239 69.0316 13.7958 70.2906 14.9653 69.8085C16.4583 69.1923 24.4705 69.4602 25.1175 70.1567C25.2419 70.2906 24.147 71.3622 22.3057 72.8623C20.6635 74.2285 19.3447 75.4072 19.4193 75.4876C19.6184 75.6751 22.455 74.5232 24.2963 73.4784C29.5964 70.4514 35.3692 65.2009 41.4157 57.9681C43.7547 55.1285 45.4467 53.8427 48.2087 52.7444C50.2988 51.9139 53.9317 51.1906 56.0219 51.1371C57.0421 51.1371 57.1665 51.0835 56.6937 50.8692C55.8228 50.4941 52.2397 50.3602 50.6223 50.6281Z" fill="#FF6B42"/>
<path d="M37.7579 51.3246C33.7518 52.5836 31.1142 54.0034 26.3367 57.4055C23.0771 59.7361 20.0414 61.4237 17.2545 62.4149C14.9653 63.2453 15.1395 63.4864 18.1005 63.4864C21.7334 63.4864 25.4161 62.6292 28.0288 61.1826C29.9447 60.1111 29.9696 60.0843 29.2729 59.4682C28.8499 59.1467 28.7255 58.8788 28.8997 58.6913C29.049 58.5574 31.5123 56.8965 34.3987 54.9945C37.2851 53.1194 39.9227 51.3513 40.2462 51.1103C40.7936 50.6816 40.8185 50.6549 40.3457 50.6549C40.072 50.6549 38.9025 50.9495 37.7579 51.3246Z" fill="#FF6B42"/>
<path d="M46.865 57.4323C45.3471 58.0484 44.2274 58.986 43.3565 60.4057C42.5354 61.7184 41.8138 63.6739 42.0377 63.915C42.0875 63.9686 42.5851 63.5935 43.1077 63.0846C45.4466 60.754 48.2584 59.4414 52.3889 58.6913L55.0265 58.2359L53.7824 57.7537C52.0903 57.1108 48.1091 56.9233 46.865 57.4323Z" fill="#FF6B42"/>
<path d="M53.0028 60.5302C52.9281 60.6909 53.0525 60.8784 53.2765 60.9588C53.5253 61.0124 54.7197 61.4142 55.9389 61.816C58.4521 62.6197 59.5221 62.5661 61.5873 61.6285C62.6075 61.1463 62.7817 60.9856 62.4333 60.7713C61.8113 60.3962 53.2267 60.1819 53.0028 60.5302Z" fill="#FF6B42"/>
<path d="M101.234 64.9061C99.8154 66.4867 99.3675 68.5493 100.363 68.9512C101.259 69.3262 102.428 67.076 102.428 64.9865C102.428 63.9686 102.08 63.9418 101.234 64.9061Z" fill="#FF6B42"/>
<path d="M69.4585 64.8258C68.9111 64.933 67.9158 65.1205 67.2191 65.2276C65.3031 65.5491 65.1538 65.7098 66.0745 66.5671C66.4975 66.9957 66.8458 67.4243 66.8458 67.5582C66.8458 67.6654 66.3482 68.0404 65.7261 68.3619C64.3078 69.1119 64.7557 69.487 66.5721 69.1119C68.8614 68.6565 70.5036 67.3975 71.4243 65.4152L71.8473 64.5579L71.1506 64.5847C70.7524 64.6115 70.006 64.7187 69.4585 64.8258Z" fill="#FF6B42"/>
<path d="M47.3129 65.5759C43.1824 67.1028 39.873 69.5674 36.887 73.3445C34.6227 76.1841 31.6368 78.6754 28.2776 80.497C27.6058 80.872 27.0335 81.2202 27.0335 81.3006C27.0335 81.3542 27.4813 81.5417 28.0288 81.7024C28.5762 81.8632 29.0241 82.1043 29.0241 82.2382C29.0241 82.7472 26.8842 84.1937 23.6743 85.9082C20.8625 87.4083 20.5888 87.5958 21.5592 87.4619C23.2762 87.194 26.9837 85.801 28.7752 84.7295C32.4828 82.5329 34.3739 80.6845 41.9382 71.7908C44.8744 68.3619 45.7702 67.4779 47.1387 66.6742C48.0594 66.1385 49.1542 65.5223 49.5524 65.2812C50.7467 64.5848 49.6021 64.7455 47.3129 65.5759Z" fill="#FF6B42"/>
<path d="M54.9271 66.8617C54.2055 67.076 53.0609 67.5314 52.389 67.9065C51.1698 68.5494 43.3566 74.9786 43.5308 75.1661C43.6801 75.3268 45.9942 74.416 47.1885 73.7195C48.5073 72.9427 49.7017 72.0319 51.0205 70.7728C51.543 70.2638 52.6876 69.487 53.5585 69.0584C55.1759 68.2279 59.0825 67.2368 60.6999 67.2368C61.1975 67.2368 61.6205 67.1296 61.6205 66.9957C61.6205 66.3528 56.9923 66.2724 54.9271 66.8617Z" fill="#FF6B42"/>
<path d="M34.1251 69.6745C31.164 72.139 27.6804 74.55 25.1673 75.8626C23.9231 76.5055 22.5297 77.2556 22.0569 77.4967L21.186 77.9521L22.8034 77.7914C27.6058 77.2824 32.433 74.041 35.4439 69.2995C35.8917 68.603 36.2152 68.0404 36.1903 68.0404C36.1406 68.0404 35.195 68.7905 34.1251 69.6745Z" fill="#FF6B42"/>
<path d="M62.1182 71.1746C57.9627 71.6568 51.543 73.2373 51.543 73.7999C51.543 73.9338 52.0655 74.2017 52.7374 74.416C53.3843 74.6035 53.9068 74.8982 53.9068 75.0321C53.9068 75.5947 49.8012 77.1216 46.0688 77.952C43.5805 78.5146 41.3659 79.5058 39.1016 81.113C37.6584 82.131 35.7922 84.0062 36.0161 84.2205C36.0659 84.2741 37.1856 83.8454 38.4795 83.2829C39.7734 82.7203 41.6894 82.0506 42.7096 81.8363C47.2631 80.7916 48.9801 80.2558 52.1402 78.9968C57.266 76.9341 61.4463 74.3624 63.5862 71.9515L64.4571 70.9871L63.7106 71.0407C63.3125 71.0407 62.5909 71.121 62.1182 71.1746Z" fill="#FF6B42"/>
<path d="M70.5783 72.7284C70.1055 73.1034 69.359 74.041 68.9111 74.7911C68.0402 76.2644 67.9407 76.6127 68.3139 76.6127C68.712 76.6127 71.3994 73.7999 71.897 72.8891C72.3449 72.0855 72.3449 72.0587 71.897 72.0587C71.6233 72.0587 71.0261 72.3533 70.5783 72.7284Z" fill="#FF6B42"/>
<path d="M64.7308 73.9874C63.5116 74.8714 61.7698 76.2376 60.874 77.0145C59.9782 77.7914 58.3857 78.9968 57.3406 79.6933C56.2707 80.363 55.3998 80.9792 55.3998 81.0327C55.3998 81.0595 55.8477 81.0059 56.3951 80.872C58.6594 80.3094 61.4712 78.5414 64.3576 75.7822C66.2238 74.0142 67.6172 72.3266 67.1693 72.3266C67.0698 72.3266 65.975 73.0766 64.7308 73.9874Z" fill="#FF6B42"/>
<path d="M78.5407 73.9874C78.068 74.925 76.5999 77.6306 75.2313 80.0147C72.8177 84.3276 72.7182 84.4348 69.4088 87.6494C65.9252 91.0247 64.905 92.4177 63.5862 95.5519C62.4914 98.1772 62.6904 98.2843 64.3576 96.0341C66.4726 93.1946 67.8411 91.5873 72.4196 86.5243C76.6994 81.8096 77.6698 80.2826 78.7398 76.6126C79.2375 74.925 79.6605 72.3265 79.4614 72.3265C79.4116 72.3265 78.9886 73.0766 78.5407 73.9874Z" fill="#FF6B42"/>
<path d="M71.6979 77.1752C69.6326 78.8093 67.5176 80.3898 66.9702 80.6845C64.2828 82.1846 60.8739 85.1581 60.8739 86.0153C60.8739 86.1761 61.7199 85.801 62.765 85.2117C63.8101 84.5955 64.7556 84.1669 64.8551 84.2473C64.9796 84.3277 64.7556 85.1849 64.3575 86.1493C63.9096 87.1672 63.7603 87.7833 63.9594 87.6762C64.1584 87.569 65.6763 86.3636 67.3683 85.0509C71.25 82.0239 72.9669 80.1487 74.012 77.8449C74.9575 75.809 75.6045 74.2017 75.4801 74.2017C75.4552 74.2017 73.7383 75.5411 71.6979 77.1752Z" fill="#FF6B42"/>
<path d="M89.9869 77.7377C89.9869 80.1219 90.1859 80.5773 90.9075 79.8004C91.3803 79.2915 91.9775 79.7469 91.9775 80.6041C91.9775 81.7292 92.2761 81.8096 93.6446 81.0595C94.9634 80.363 96.9043 78.2735 97.5761 76.8805C98.0738 75.8626 98.024 75.8894 95.5357 77.8985C93.6198 79.4254 93.0972 79.5058 93.346 78.1664C93.5202 77.3359 93.4705 77.3091 92.0521 77.8717C91.9028 77.9253 91.5794 77.6842 91.3057 77.2823C89.9371 75.1929 90.0118 75.1661 89.9869 77.7377Z" fill="#FF6B42"/>
<path d="M87.0258 79.6397C86.6525 81.8899 86.0553 84.0598 85.7319 84.2741C85.284 84.5688 85.0103 83.8187 85.0103 82.3721C85.0103 80.2826 84.7117 80.1219 83.7164 81.6221C81.8004 84.408 80.8797 87.2476 80.606 91.0783C80.5314 92.257 80.5065 93.2214 80.5811 93.2214C80.6558 93.2214 81.1783 91.8284 81.7755 90.1407C82.3727 88.4531 82.9201 87.0601 83.0197 87.0601C83.0943 87.0601 83.368 88.212 83.592 89.6049C84.2638 93.7035 85.2591 95.7395 85.2591 93.0071C85.2591 91.2926 85.8812 87.5423 86.6525 84.7027C87.2248 82.6132 87.7723 77.9521 87.4239 77.9521C87.3493 77.9521 87.1751 78.7021 87.0258 79.6397Z" fill="#FF6B42"/>
<path d="M78.9886 82.3721C74.9825 89.0424 74.3604 90.2479 73.5641 92.766C72.967 94.6412 72.743 95.8198 72.6684 97.7754C72.5439 100.722 72.6932 100.535 73.7383 96.4628C74.435 93.65 74.858 92.6588 78.3914 85.3724C80.3571 81.3542 81.6013 78.4879 81.4271 78.4879C81.3524 78.4879 80.2576 80.2291 78.9886 82.3721Z" fill="#FF6B42"/>
<path d="M59.6796 81.5417C57.5148 82.8276 54.927 85.1313 53.011 87.5423C51.3439 89.6318 47.935 94.909 47.935 95.3912C47.935 95.5252 48.5073 95.5788 49.3781 95.4716L50.7965 95.2841L47.5617 98.7398C44.327 102.169 42.6598 104.472 42.3114 105.946L42.1373 106.723L43.4809 105.705C50.2242 100.535 56.3204 94.2126 57.2411 91.5069C57.3904 91.0515 57.2909 91.0248 56.1463 91.1855C54.5538 91.3998 54.4045 91.0783 55.1012 89.0424C56.0716 86.3904 58.3857 83.283 60.9984 81.247C62.0932 80.363 61.4712 80.5238 59.6796 81.5417Z" fill="#FF6B42"/>
<path d="M42.4856 84.2473C40.5448 84.7027 38.156 85.5867 36.9866 86.2564L36.1157 86.7386L37.0612 86.9261C38.2058 87.1672 40.7936 86.8993 42.9584 86.3368C44.7749 85.8546 47.935 84.4348 47.935 84.0865C47.935 83.7115 44.2772 83.8454 42.4856 84.2473Z" fill="#FF6B42"/>
<path d="M88.444 85.3723C88.0708 86.1224 87.6975 87.2207 87.6229 87.7833C87.4736 88.828 87.8717 90.0067 88.4191 90.1942C88.8421 90.3549 89.29 87.7565 89.1905 85.7206L89.1158 83.9793L88.444 85.3723Z" fill="#FF6B42"/>
<path d="M48.6317 86.685C46.019 88.1316 43.058 88.962 39.6242 89.2299C33.5279 89.6585 31.1889 90.2479 28.0288 92.0427C26.4114 92.9535 24.0725 94.9358 24.2964 95.1769C24.371 95.2572 25.6649 95.0697 27.1579 94.8018C30.1936 94.2393 30.7659 94.1857 30.7659 94.5072C30.7659 94.6143 30.2434 95.4983 29.5964 96.4627C27.556 99.463 27.2574 100.508 28.7255 99.5969C29.9697 98.7933 34.1002 96.9181 36.6134 96.0073C42.212 93.9446 47.6862 90.1943 49.8759 86.8457C50.5726 85.801 50.274 85.7474 48.6317 86.685Z" fill="#FF6B42"/>
<path d="M78.2174 90.8908C77.9437 91.6677 77.9935 92.0427 78.3169 91.6945C78.4662 91.5338 78.5409 91.1855 78.4911 90.9176C78.4165 90.4354 78.3916 90.4354 78.2174 90.8908Z" fill="#FF6B42"/>
<path d="M69.7073 93.0606C67.8908 95.8198 62.5659 107.446 62.9391 107.848C62.9889 107.901 63.7354 107.071 64.5814 105.946C66.9453 102.892 66.7462 103.026 67.6918 103.803L68.5129 104.472L68.6622 101.472C68.8115 98.4183 69.4833 95.3108 70.5782 92.5784C70.827 91.9087 71.0012 91.3462 70.9514 91.3462C70.9016 91.3462 70.3293 92.123 69.7073 93.0606Z" fill="#FF6B42"/>
<path d="M76.2267 96.6235C75.8784 97.4807 75.4553 98.9005 75.3061 99.7577C74.9826 101.74 74.9826 104.928 75.2812 105.142C75.7291 105.437 76.4755 102.437 76.799 99.1148C76.9732 97.2664 77.0727 95.5788 77.023 95.3912C76.9483 95.2037 76.6 95.7663 76.2267 96.6235Z" fill="#FF6B42"/>
<path d="M58.2364 96.5163C57.5646 97.0253 56.5444 98.0164 55.997 98.7665C54.9519 100.133 54.7031 100.722 53.5584 104.687C53.2101 105.892 52.5134 107.58 52.0406 108.383C51.5429 109.214 51.1946 109.937 51.2444 109.991C51.2941 110.071 51.9411 109.616 52.6876 109.026C54.3796 107.66 56.1711 105.196 57.266 102.758C58.112 100.829 59.7294 95.9002 59.5552 95.7127C59.5054 95.6591 58.9082 96.0341 58.2364 96.5163Z" fill="#FF6B42"/>
</svg>
