<svg id="logo" width="140" height="142" viewBox="0 0 140 142" fill="none" xmlns="http://www.w3.org/2000/svg">
<rect x="2.5" y="2.5" width="135" height="137" rx="27.5" fill="white"/>
<rect x="2.5" y="2.5" width="135" height="137" rx="27.5" stroke="#021C58" stroke-width="5" style="mix-blend-mode:hard-light"/>
<path d="M57.4655 16.1322C57.4655 16.5876 58.3115 17.9002 58.9834 18.5164C60.3021 19.7218 61.6209 20.2844 63.7609 20.5791C68.19 21.1684 71.0017 22.7489 73.067 25.776L73.6144 26.5796L73.3905 25.6956C72.7435 23.1239 70.6783 20.3112 68.7125 19.2396C68.2149 18.9718 66.6721 18.6235 65.3285 18.436C63.0144 18.1413 58.635 16.8287 58.1125 16.2394C57.8388 15.9715 57.4655 15.9179 57.4655 16.1322Z" fill="#FF6B42"/>
<path d="M74.311 18.436C74.8833 19.2397 75.4805 20.2308 75.7045 20.6862C76.1275 21.6238 77.1228 25.8296 77.1228 26.7672C77.1228 27.1154 77.2223 27.544 77.3219 27.7315C77.6702 28.2941 78.1679 26.7672 78.2923 24.7045C78.4167 23.1508 78.3421 22.615 77.8693 21.5702C77.2472 20.0969 75.7791 18.4896 74.311 17.6056L73.3157 16.9895L74.311 18.436Z" fill="#FF6B42"/>
<path d="M47.786 18.8111C46.8902 19.0254 46.094 19.2933 45.9696 19.4272C45.8452 19.5612 47.2884 19.8023 49.1794 19.9898C51.0457 20.1773 53.3846 20.4988 54.3302 20.6863C55.3006 20.9006 56.1466 20.9809 56.2213 20.9274C56.4203 20.7131 55.2011 19.7755 53.9818 19.1861C52.5137 18.4628 49.8264 18.3021 47.786 18.8111Z" fill="#FF6B42"/>
<path d="M81.6017 19.695C81.6017 19.829 81.7759 20.4183 81.9998 20.9809C82.2984 21.7577 82.3731 22.6685 82.2984 24.7312C82.2486 26.2314 82.2984 27.41 82.3979 27.3297C82.8209 27.0618 83.866 24.5169 83.9904 23.4186C84.09 22.6149 83.9904 22.0524 83.667 21.4095C83.2191 20.5255 81.6017 19.1861 81.6017 19.695Z" fill="#FF6B42"/>
<path d="M59.68 22.2667C59.8791 22.5078 61.1232 23.499 62.4669 24.4366C65.6021 26.66 68.9364 30.7318 67.5927 30.7318C67.4434 30.7318 66.5228 30.5443 65.5524 30.33C64.6068 30.1157 63.7857 30.0085 63.7359 30.0621C63.512 30.3032 65.3035 32.6874 66.2242 33.4374C67.4683 34.375 67.742 34.4018 68.2646 33.5446C68.7871 32.6874 69.5834 32.6874 70.7777 33.5714L71.7233 34.2411L71.5491 32.3123C71.2505 28.7227 70.6782 27.169 69.1604 25.7224C68.2148 24.8116 65.9256 23.5794 64.8059 23.3919C63.9599 23.2311 62.666 22.8561 59.8293 21.9721C59.3814 21.8381 59.3814 21.8649 59.68 22.2667Z" fill="#FF6B42"/>
<path d="M52.7377 24.9456C51.1203 25.2938 47.587 26.3118 46.6414 26.7404C45.6959 27.1422 49.9757 26.9815 51.9415 26.5529C53.3349 26.2314 54.6786 26.1511 56.918 26.2314C58.5852 26.3118 59.9537 26.3118 59.9537 26.285C59.9537 25.9903 57.8636 25.1063 56.5945 24.8652C54.8776 24.517 54.8527 24.517 52.7377 24.9456Z" fill="#FF6B42"/>
<path d="M49.2542 29.0978C48.7815 29.2049 47.7115 29.5264 46.8904 29.7943C45.8453 30.1425 44.6012 30.3033 42.7847 30.3033C40.396 30.3033 39.6246 30.1693 36.8875 29.2317C36.6387 29.1514 36.8875 29.3925 37.4349 29.7675C38.9279 30.7854 40.8688 31.3212 43.78 31.4551C45.6462 31.5623 46.8655 31.4819 48.0599 31.1605C50.5979 30.5176 53.335 30.3836 56.3458 30.7051C57.8637 30.8658 59.3566 31.0801 59.705 31.1605L60.3271 31.3212L59.7548 30.7587C58.5106 29.58 56.5449 29.0442 53.2355 28.9638C51.5186 28.9103 49.727 28.9906 49.2542 29.0978Z" fill="#FF6B42"/>
<path d="M86.9515 29.0442C86.205 29.1513 83.5923 29.9282 83.5923 30.0085C83.5923 30.0353 85.3093 30.0621 87.3994 30.0621C91.4304 30.0889 93.9685 30.5443 96.6558 31.8034L97.8999 32.3659L97.1534 31.5355C96.7553 31.0801 95.6854 30.33 94.7896 29.8478C93.3215 29.0977 92.9234 29.0174 90.4351 28.9638C88.9421 28.937 87.3745 28.9638 86.9515 29.0442Z" fill="#FF6B42"/>
<path d="M106.808 32.5802C105.813 32.8749 104.693 33.3035 104.32 33.5446C103.673 33.9464 103.772 33.9464 106.485 33.8125C109.047 33.6785 114.87 33.9732 116.811 34.375L117.557 34.5358L116.935 33.9732C114.97 32.232 110.267 31.5891 106.808 32.5802Z" fill="#FF6B42"/>
<path d="M40.5451 32.9017C39.923 33.0088 38.878 33.116 38.1813 33.1428L36.9371 33.1696L37.6338 33.7053C38.6043 34.509 38.4798 34.9108 37.1362 35.2591C35.469 35.6877 31.662 36.0359 30.4676 35.902L29.4723 35.7948L30.1939 36.3038C31.3883 37.1878 32.8812 37.5093 35.3695 37.3753C36.9371 37.295 38.1564 37.0539 39.1766 36.6253C41.839 35.5537 44.601 34.7233 47.2386 34.2411C48.6818 33.9732 49.7269 33.7053 49.5776 33.5982C48.2837 32.741 43.3569 32.3391 40.5451 32.9017Z" fill="#FF6B42"/>
<path d="M58.5355 35.902C60.6505 38.0183 60.9491 38.6612 59.6552 38.3933C53.8575 37.2414 51.2946 37.161 48.2589 38.0451C46.965 38.4201 45.4471 38.8219 44.8997 38.9023L43.9044 39.1166L44.7753 39.5452C45.5218 39.9202 46.542 39.9738 51.3941 39.8934C56.3956 39.8399 57.366 39.8934 59.0331 40.3488C62.7904 41.3936 64.0843 42.4115 66.4731 46.2155C68.1402 48.8675 68.2895 49.0282 68.3642 48.2782C68.5135 46.6977 68.613 46.6977 70.1806 48.2514C71.9473 50.0194 74.1618 51.3052 75.829 51.5195L76.9985 51.6803L75.7543 50.5284C72.6938 47.7156 71.2754 45.9208 70.1806 43.4831C68.2398 39.1702 64.4576 35.9288 59.705 34.509C58.6848 34.1876 57.5651 33.9465 57.2167 33.9465C56.6693 33.9732 56.8186 34.1876 58.5355 35.902Z" fill="#FF6B42"/>
<path d="M98.4474 36.1163C98.3728 36.4645 98.4225 36.6252 98.5967 36.5449C98.9699 36.4109 99.1441 35.5537 98.8207 35.5537C98.6962 35.5537 98.5221 35.7948 98.4474 36.1163Z" fill="#FF6B42"/>
<path d="M119.672 37.1074C119.324 37.161 118.677 37.5093 118.254 37.8575C117.184 38.7415 117.109 40.2149 118.08 41.206C118.627 41.7686 118.951 41.849 120.469 41.849C121.986 41.849 122.26 41.9293 122.683 42.4919C122.932 42.8401 123.156 43.2955 123.156 43.5098C123.156 44.3135 123.629 43.5366 123.878 42.3044C124.201 40.6435 123.878 39.1434 122.982 38.2058C122.26 37.4289 120.767 36.9467 119.672 37.1074Z" fill="#FF6B42"/>
<path d="M92.0524 38.9558C89.2158 39.6523 87.2003 40.4828 87.4242 40.8846C87.6481 41.2596 91.6543 41.7686 93.6698 41.6615C95.0383 41.6079 95.6853 41.4204 96.2078 41.0185C97.1285 40.2953 97.2529 39.2237 96.4815 38.6612C95.7599 38.1254 95.2374 38.1522 92.0524 38.9558Z" fill="#042573"/>
<path d="M109.421 38.6879C108.326 38.8754 108.6 39.1969 110.167 39.5719C110.939 39.7595 112.208 40.0809 112.954 40.2684C113.701 40.456 114.372 40.5631 114.447 40.4827C114.696 40.1881 113.103 39.063 112.058 38.7951C110.988 38.5004 110.665 38.5004 109.421 38.6879Z" fill="#FF6B42"/>
<path d="M54.3302 43.2687C53.4842 43.8581 52.4889 44.7956 52.0908 45.3582C51.419 46.2958 51.3692 46.5101 51.3692 48.921C51.3692 51.198 51.4438 51.6534 52.0659 52.8857C52.4392 53.6625 53.4345 55.002 54.3054 55.886C57.8885 59.556 60.1279 61.0025 62.666 61.2168L64.2585 61.3508L61.6707 58.5648C58.9336 55.6449 57.1669 53.0732 56.6941 51.332C56.4453 50.4747 56.4702 50.0997 56.8185 49.0818C57.8885 46.1083 60.2026 44.7689 62.5913 45.7332C63.5369 46.1351 63.6115 45.894 62.8899 44.876C61.8448 43.4027 59.904 42.4383 57.7143 42.3043C55.873 42.1972 55.8232 42.224 54.3302 43.2687Z" fill="#FF6B42"/>
<path d="M25.2672 42.9473C21.6343 43.8045 18.9469 45.7333 17.7277 48.3853C17.4042 49.055 17.2051 49.6176 17.2549 49.6712C17.3047 49.7247 18.1756 49.2961 19.2206 48.7336C23.5751 46.3226 29.6216 45.7869 35.8921 47.2334C39.1268 47.9835 44.0039 47.2334 47.3133 45.4654C49.702 44.1796 52.0659 42.1169 50.548 42.6526C49.279 43.0545 45.895 43.617 43.6555 43.751C41.64 43.8849 40.4456 43.7778 37.3104 43.2152C32.8564 42.4116 28.1038 42.3044 25.2672 42.9473Z" fill="#042573"/>
<path d="M93.5455 43.1348C92.4507 43.5098 92.1023 43.7241 92.4755 43.8045C93.1723 43.9116 94.7896 43.4562 95.4117 42.9472C96.1084 42.3847 95.5361 42.4383 93.5455 43.1348Z" fill="#FF6B42"/>
<path d="M105.24 45.2243C106.733 45.4922 107.928 45.4654 106.609 45.1707C106.061 45.0635 105.29 44.9564 104.867 44.9832C104.32 44.9832 104.394 45.0635 105.24 45.2243Z" fill="#FF6B42"/>
<path d="M44.6508 49.1353C42.2372 50.0193 38.4052 50.823 36.6386 50.823C35.7428 50.823 34.3494 50.5551 33.0555 50.1265C31.2639 49.5104 30.5174 49.4032 27.7305 49.4032C23.1272 49.3764 19.6934 50.4212 17.4788 52.5106C16.6328 53.3143 15.7122 54.8412 16.0854 54.8412C16.2098 54.8412 17.1305 54.5465 18.2004 54.1715C19.2455 53.8233 21.0371 53.3679 22.1817 53.2071C24.1474 52.8857 24.446 52.9125 28.3526 53.7429C30.7165 54.2519 33.6278 54.6805 35.1954 54.7609C37.7832 54.8948 38.032 54.868 39.9977 54.0911C42.6602 53.0196 44.7504 51.6534 46.0194 50.0997C47.5621 48.1977 47.4377 48.0906 44.6508 49.1353Z" fill="#042573"/>
<path d="M102.802 50.6087C100.164 51.4123 100.762 51.4659 103.648 50.7158C104.992 50.3676 105.788 50.0729 105.365 50.0729C104.967 50.0729 103.797 50.314 102.802 50.6087Z" fill="#FF6B42"/>
<path d="M119.473 54.0377C117.557 55.9932 114.223 58.4041 113.651 58.2702C113.452 58.2166 112.655 58.9399 111.859 59.8507C111.088 60.7615 109.62 62.1813 108.6 63.0117C104.295 66.5745 102.503 70.432 103.474 74.0752C104.295 77.1559 108.201 82.1921 112.083 85.1656C114.173 86.7461 116.438 88.1391 116.637 87.9515C116.861 87.6837 116.039 86.7193 111.138 81.4152C105.638 75.4682 104.743 74.102 104.668 71.6375C104.593 69.4141 105.191 67.9943 106.957 66.0656C108.898 64.0029 109.893 63.226 110.217 63.5743C110.366 63.735 110.366 64.4315 110.217 65.4226C109.844 67.8604 109.968 68.0747 110.441 65.8245C110.69 64.7262 111.013 63.5743 111.162 63.2528C111.585 62.3956 113.253 60.8686 115.492 59.3149C117.632 57.8148 119.424 55.9664 120.469 54.1448C121.016 53.2072 121.489 52.1357 121.34 52.1625C121.315 52.1893 120.469 53.0197 119.473 54.0377Z" fill="#FF6B42"/>
<path d="M120.717 55.4306C119.971 56.3146 119.647 57.4397 119.822 58.5648C120.095 60.3596 120.966 63.6814 121.165 63.6814C121.563 63.6814 122.409 59.2881 122.409 57.279C122.409 56.1271 121.912 54.8412 121.439 54.8412C121.339 54.8412 121.016 55.1091 120.717 55.4306Z" fill="#FF6B42"/>
<path d="M22.4554 56.7164C22.1319 56.8504 21.8831 57.0647 21.8831 57.1718C21.8831 57.6004 24.5207 59.2613 26.6108 60.1721C28.4024 60.949 29.0991 61.1097 31.2141 61.2168C33.3043 61.2972 33.9513 61.2436 35.2949 60.7346C37.0616 60.0917 39.0273 58.8059 40.1471 57.5468C40.9931 56.5825 40.9682 56.5825 39.0771 57.0914C36.3898 57.8147 35.2949 57.8415 32.085 57.2522C28.5766 56.6093 23.2766 56.3146 22.4554 56.7164Z" fill="#042573"/>
<path d="M105.489 58.163C105.34 58.3773 105.066 58.5112 104.917 58.4577C104.743 58.4041 104.369 58.9131 104.071 59.6095L103.523 60.8686L104.22 59.9578L104.917 59.0202L105.813 59.4756C106.733 59.9578 109.097 60.0917 109.321 59.6899C109.396 59.556 108.873 59.3685 108.177 59.2613C106.186 58.9934 105.937 58.8863 106.061 58.2969C106.211 57.7076 105.912 57.6272 105.489 58.163Z" fill="#FF6B42"/>
<path d="M81.8505 61.4044C81.8505 61.4579 82.3233 61.7794 82.9205 62.1009C83.4928 62.4223 84.6872 63.4938 85.5829 64.4582C87.1506 66.1727 87.2252 66.3066 87.897 68.9051C88.7182 72.1732 90.2111 75.5218 91.5299 77.1023L92.5501 78.2809L91.0571 75.0664C90.0867 72.9769 89.3402 70.9142 88.9421 69.1729C88.5938 67.6996 88.1707 66.1191 88.0214 65.6905C87.474 64.2707 85.6327 62.3955 84.1895 61.8062C82.8956 61.2972 81.8505 61.1097 81.8505 61.4044Z" fill="#FF6B42"/>
<path d="M67.2941 62.717C66.8711 63.0385 66.9457 63.092 67.941 63.226C70.3298 63.5742 72.3951 63.735 72.3951 63.5742C72.3951 63.4671 71.9223 63.1456 71.35 62.8777C70.1058 62.2616 67.9659 62.1812 67.2941 62.717Z" fill="#FF6B42"/>
<path d="M33.5779 63.5474C32.284 63.7349 30.6666 64.11 29.9699 64.3511C27.9544 65.0743 20.8877 68.8247 21.037 69.0658C21.3605 69.6551 25.9389 69.039 28.676 68.0746C29.3478 67.8335 29.945 67.6996 30.0197 67.8067C30.0943 67.8871 29.9699 68.4229 29.746 69.039C29.4225 69.923 29.4225 70.1105 29.6962 70.1105C30.5173 70.1105 33.9014 69.039 35.1206 68.3961C36.8127 67.5121 39.7737 66.8959 42.4113 66.8959C45.5963 66.8959 48.1592 66.4138 50.0005 65.503L51.6179 64.6725L48.2587 64.3511C46.4174 64.1635 43.954 63.8153 42.8094 63.5742C40.3709 63.0652 36.8873 63.0652 33.5779 63.5474Z" fill="#FF6B42"/>
<path d="M66.6223 66.6281C61.7702 67.4585 56.296 70.6731 51.5931 75.495C49.5278 77.6113 48.6072 78.3345 46.9649 79.1918C44.3025 80.558 42.486 81.2009 39.4254 81.8974C36.2653 82.5939 34.847 83.1028 32.8066 84.2012C31.239 85.0316 29.7958 86.2906 30.9653 85.8085C32.4583 85.1923 40.4705 85.4602 41.1175 86.1567C41.2419 86.2906 40.147 87.3622 38.3057 88.8623C36.6635 90.2285 35.3447 91.4072 35.4193 91.4876C35.6184 91.6751 38.455 90.5232 40.2963 89.4784C45.5964 86.4514 51.3692 81.2009 57.4157 73.9681C59.7547 71.1285 61.4467 69.8427 64.2087 68.7444C66.2988 67.9139 69.9317 67.1906 72.0219 67.1371C73.0421 67.1371 73.1665 67.0835 72.6937 66.8692C71.8228 66.4941 68.2397 66.3602 66.6223 66.6281Z" fill="#FF6B42"/>
<path d="M53.7579 67.3246C49.7518 68.5836 47.1142 70.0034 42.3367 73.4055C39.0771 75.7361 36.0414 77.4237 33.2545 78.4149C30.9653 79.2453 31.1395 79.4864 34.1005 79.4864C37.7334 79.4864 41.4161 78.6292 44.0288 77.1826C45.9447 76.1111 45.9696 76.0843 45.2729 75.4682C44.8499 75.1467 44.7255 74.8788 44.8997 74.6913C45.049 74.5574 47.5123 72.8965 50.3987 70.9945C53.2851 69.1194 55.9227 67.3514 56.2462 67.1103C56.7936 66.6816 56.8185 66.6549 56.3457 66.6549C56.072 66.6549 54.9025 66.9495 53.7579 67.3246Z" fill="#FF6B42"/>
<path d="M62.865 73.4323C61.3471 74.0484 60.2274 74.986 59.3565 76.4057C58.5354 77.7184 57.8138 79.6739 58.0377 79.915C58.0875 79.9686 58.5851 79.5935 59.1077 79.0846C61.4466 76.754 64.2584 75.4414 68.3889 74.6913L71.0265 74.2359L69.7824 73.7537C68.0903 73.1108 64.1091 72.9233 62.865 73.4323Z" fill="#FF6B42"/>
<path d="M69.0028 76.5302C68.9281 76.6909 69.0525 76.8784 69.2765 76.9588C69.5253 77.0124 70.7197 77.4142 71.9389 77.816C74.4521 78.6197 75.5221 78.5661 77.5873 77.6285C78.6075 77.1463 78.7817 76.9856 78.4333 76.7713C77.8113 76.3962 69.2267 76.1819 69.0028 76.5302Z" fill="#FF6B42"/>
<path d="M117.234 80.9061C115.815 82.4867 115.367 84.5493 116.363 84.9512C117.259 85.3262 118.428 83.076 118.428 80.9865C118.428 79.9686 118.08 79.9418 117.234 80.9061Z" fill="#FF6B42"/>
<path d="M85.4585 80.8258C84.9111 80.933 83.9158 81.1205 83.2191 81.2276C81.3031 81.5491 81.1538 81.7098 82.0745 82.5671C82.4975 82.9957 82.8458 83.4243 82.8458 83.5582C82.8458 83.6654 82.3482 84.0404 81.7261 84.3619C80.3078 85.1119 80.7557 85.487 82.5721 85.1119C84.8614 84.6565 86.5036 83.3975 87.4243 81.4152L87.8473 80.5579L87.1506 80.5847C86.7524 80.6115 86.006 80.7187 85.4585 80.8258Z" fill="#FF6B42"/>
<path d="M63.3129 81.5759C59.1824 83.1028 55.873 85.5674 52.887 89.3445C50.6227 92.1841 47.6368 94.6754 44.2776 96.497C43.6058 96.872 43.0335 97.2202 43.0335 97.3006C43.0335 97.3542 43.4813 97.5417 44.0288 97.7024C44.5762 97.8632 45.0241 98.1043 45.0241 98.2382C45.0241 98.7472 42.8842 100.194 39.6743 101.908C36.8625 103.408 36.5888 103.596 37.5592 103.462C39.2762 103.194 42.9837 101.801 44.7752 100.73C48.4828 98.5329 50.3739 96.6845 57.9382 87.7908C60.8744 84.3619 61.7702 83.4779 63.1387 82.6742C64.0594 82.1385 65.1542 81.5223 65.5524 81.2812C66.7467 80.5848 65.6021 80.7455 63.3129 81.5759Z" fill="#FF6B42"/>
<path d="M70.9271 82.8617C70.2055 83.076 69.0609 83.5314 68.389 83.9065C67.1698 84.5494 59.3566 90.9786 59.5308 91.1661C59.6801 91.3268 61.9942 90.416 63.1885 89.7195C64.5073 88.9427 65.7017 88.0319 67.0205 86.7728C67.543 86.2638 68.6876 85.487 69.5585 85.0584C71.1759 84.2279 75.0825 83.2368 76.6999 83.2368C77.1975 83.2368 77.6205 83.1296 77.6205 82.9957C77.6205 82.3528 72.9923 82.2724 70.9271 82.8617Z" fill="#FF6B42"/>
<path d="M50.1251 85.6745C47.164 88.139 43.6804 90.55 41.1673 91.8626C39.9231 92.5055 38.5297 93.2556 38.0569 93.4967L37.186 93.9521L38.8034 93.7914C43.6058 93.2824 48.433 90.041 51.4439 85.2995C51.8917 84.603 52.2152 84.0404 52.1903 84.0404C52.1406 84.0404 51.195 84.7905 50.1251 85.6745Z" fill="#FF6B42"/>
<path d="M78.1182 87.1746C73.9627 87.6568 67.543 89.2373 67.543 89.7999C67.543 89.9338 68.0655 90.2017 68.7374 90.416C69.3843 90.6035 69.9068 90.8982 69.9068 91.0321C69.9068 91.5947 65.8012 93.1216 62.0688 93.952C59.5805 94.5146 57.3659 95.5058 55.1016 97.113C53.6584 98.131 51.7922 100.006 52.0161 100.22C52.0659 100.274 53.1856 99.8454 54.4795 99.2829C55.7734 98.7203 57.6894 98.0506 58.7096 97.8363C63.2631 96.7916 64.9801 96.2558 68.1402 94.9968C73.266 92.9341 77.4463 90.3624 79.5862 87.9515L80.4571 86.9871L79.7107 87.0407C79.3125 87.0407 78.5909 87.121 78.1182 87.1746Z" fill="#FF6B42"/>
<path d="M86.5783 88.7284C86.1055 89.1034 85.359 90.041 84.9111 90.7911C84.0402 92.2644 83.9407 92.6127 84.3139 92.6127C84.712 92.6127 87.3994 89.7999 87.897 88.8891C88.3449 88.0855 88.3449 88.0587 87.897 88.0587C87.6233 88.0587 87.0261 88.3533 86.5783 88.7284Z" fill="#FF6B42"/>
<path d="M80.7308 89.9874C79.5116 90.8714 77.7698 92.2376 76.874 93.0145C75.9782 93.7914 74.3857 94.9968 73.3406 95.6933C72.2707 96.363 71.3998 96.9792 71.3998 97.0327C71.3998 97.0595 71.8477 97.0059 72.3951 96.872C74.6594 96.3094 77.4712 94.5414 80.3576 91.7822C82.2238 90.0142 83.6172 88.3266 83.1693 88.3266C83.0698 88.3266 81.975 89.0766 80.7308 89.9874Z" fill="#FF6B42"/>
<path d="M94.5407 89.9874C94.068 90.925 92.5999 93.6306 91.2313 96.0147C88.8177 100.328 88.7182 100.435 85.4088 103.649C81.9252 107.025 80.905 108.418 79.5862 111.552C78.4914 114.177 78.6904 114.284 80.3576 112.034C82.4726 109.195 83.8411 107.587 88.4196 102.524C92.6994 97.8096 93.6698 96.2826 94.7398 92.6126C95.2375 90.925 95.6605 88.3265 95.4614 88.3265C95.4116 88.3265 94.9886 89.0766 94.5407 89.9874Z" fill="#FF6B42"/>
<path d="M87.6979 93.1752C85.6326 94.8093 83.5176 96.3898 82.9702 96.6845C80.2828 98.1846 76.8739 101.158 76.8739 102.015C76.8739 102.176 77.7199 101.801 78.765 101.212C79.8101 100.596 80.7556 100.167 80.8551 100.247C80.9796 100.328 80.7556 101.185 80.3575 102.149C79.9096 103.167 79.7603 103.783 79.9594 103.676C80.1584 103.569 81.6763 102.364 83.3683 101.051C87.25 98.0239 88.9669 96.1487 90.012 93.8449C90.9575 91.809 91.6045 90.2017 91.4801 90.2017C91.4552 90.2017 89.7383 91.5411 87.6979 93.1752Z" fill="#FF6B42"/>
<path d="M105.987 93.7377C105.987 96.1219 106.186 96.5773 106.908 95.8004C107.38 95.2915 107.977 95.7469 107.977 96.6041C107.977 97.7292 108.276 97.8096 109.645 97.0595C110.963 96.363 112.904 94.2735 113.576 92.8805C114.074 91.8626 114.024 91.8894 111.536 93.8985C109.62 95.4254 109.097 95.5058 109.346 94.1664C109.52 93.3359 109.47 93.3091 108.052 93.8717C107.903 93.9253 107.579 93.6842 107.306 93.2823C105.937 91.1929 106.012 91.1661 105.987 93.7377Z" fill="#FF6B42"/>
<path d="M103.026 95.6397C102.653 97.8899 102.055 100.06 101.732 100.274C101.284 100.569 101.01 99.8187 101.01 98.3721C101.01 96.2826 100.712 96.1219 99.7164 97.6221C97.8004 100.408 96.8797 103.248 96.606 107.078C96.5314 108.257 96.5065 109.221 96.5811 109.221C96.6558 109.221 97.1783 107.828 97.7755 106.141C98.3727 104.453 98.9201 103.06 99.0197 103.06C99.0943 103.06 99.368 104.212 99.592 105.605C100.264 109.704 101.259 111.739 101.259 109.007C101.259 107.293 101.881 103.542 102.653 100.703C103.225 98.6132 103.772 93.9521 103.424 93.9521C103.349 93.9521 103.175 94.7021 103.026 95.6397Z" fill="#FF6B42"/>
<path d="M94.9886 98.3721C90.9825 105.042 90.3604 106.248 89.5641 108.766C88.967 110.641 88.743 111.82 88.6684 113.775C88.5439 116.722 88.6932 116.535 89.7383 112.463C90.435 109.65 90.858 108.659 94.3914 101.372C96.3571 97.3542 97.6013 94.4879 97.4271 94.4879C97.3524 94.4879 96.2576 96.2291 94.9886 98.3721Z" fill="#FF6B42"/>
<path d="M75.6796 97.5417C73.5148 98.8276 70.927 101.131 69.011 103.542C67.3439 105.632 63.935 110.909 63.935 111.391C63.935 111.525 64.5073 111.579 65.3782 111.472L66.7965 111.284L63.5617 114.74C60.327 118.169 58.6598 120.472 58.3114 121.946L58.1373 122.723L59.4809 121.705C66.2242 116.535 72.3204 110.213 73.2411 107.507C73.3904 107.052 73.2909 107.025 72.1463 107.185C70.5538 107.4 70.4045 107.078 71.1012 105.042C72.0716 102.39 74.3857 99.283 76.9984 97.247C78.0932 96.363 77.4712 96.5238 75.6796 97.5417Z" fill="#FF6B42"/>
<path d="M58.4856 100.247C56.5448 100.703 54.156 101.587 52.9866 102.256L52.1157 102.739L53.0612 102.926C54.2058 103.167 56.7936 102.899 58.9584 102.337C60.7749 101.855 63.935 100.435 63.935 100.087C63.935 99.7115 60.2772 99.8454 58.4856 100.247Z" fill="#FF6B42"/>
<path d="M104.444 101.372C104.071 102.122 103.698 103.221 103.623 103.783C103.474 104.828 103.872 106.007 104.419 106.194C104.842 106.355 105.29 103.756 105.19 101.721L105.116 99.9793L104.444 101.372Z" fill="#FF6B42"/>
<path d="M64.6317 102.685C62.019 104.132 59.058 104.962 55.6242 105.23C49.5279 105.659 47.1889 106.248 44.0288 108.043C42.4114 108.953 40.0725 110.936 40.2964 111.177C40.371 111.257 41.6649 111.07 43.1579 110.802C46.1936 110.239 46.7659 110.186 46.7659 110.507C46.7659 110.614 46.2434 111.498 45.5964 112.463C43.556 115.463 43.2574 116.508 44.7255 115.597C45.9697 114.793 50.1002 112.918 52.6134 112.007C58.212 109.945 63.6862 106.194 65.8759 102.846C66.5726 101.801 66.274 101.747 64.6317 102.685Z" fill="#FF6B42"/>
<path d="M94.2174 106.891C93.9437 107.668 93.9935 108.043 94.3169 107.694C94.4662 107.534 94.5409 107.186 94.4911 106.918C94.4165 106.435 94.3916 106.435 94.2174 106.891Z" fill="#FF6B42"/>
<path d="M85.7073 109.061C83.8908 111.82 78.5659 123.446 78.9391 123.848C78.9889 123.901 79.7354 123.071 80.5814 121.946C82.9453 118.892 82.7462 119.026 83.6918 119.803L84.5129 120.472L84.6622 117.472C84.8115 114.418 85.4833 111.311 86.5782 108.578C86.827 107.909 87.0012 107.346 86.9514 107.346C86.9016 107.346 86.3293 108.123 85.7073 109.061Z" fill="#FF6B42"/>
<path d="M92.2267 112.624C91.8784 113.481 91.4553 114.901 91.3061 115.758C90.9826 117.74 90.9826 120.928 91.2812 121.142C91.7291 121.437 92.4755 118.437 92.799 115.115C92.9732 113.266 93.0727 111.579 93.023 111.391C92.9483 111.204 92.6 111.766 92.2267 112.624Z" fill="#FF6B42"/>
<path d="M74.2364 112.516C73.5646 113.025 72.5444 114.016 71.997 114.767C70.9519 116.133 70.7031 116.722 69.5584 120.687C69.2101 121.892 68.5134 123.58 68.0406 124.383C67.5429 125.214 67.1946 125.937 67.2444 125.991C67.2941 126.071 67.9411 125.616 68.6876 125.026C70.3796 123.66 72.1711 121.196 73.266 118.758C74.112 116.829 75.7294 111.9 75.5552 111.713C75.5054 111.659 74.9082 112.034 74.2364 112.516Z" fill="#FF6B42"/>
</svg>
