<?xml version="1.0" standalone="no"?>
<!DOCTYPE svg PUBLIC "-//W3C//DTD SVG 20010904//EN"
 "http://www.w3.org/TR/2001/REC-SVG-20010904/DTD/svg10.dtd">
<svg version="1.0" xmlns="http://www.w3.org/2000/svg"
 width="1787.000000pt" height="1894.000000pt" viewBox="0 0 1787.000000 1894.000000"
 preserveAspectRatio="xMidYMid meet">

<g transform="translate(0.000000,1894.000000) scale(0.100000,-0.100000)"
fill="#000000" stroke="none">
<path d="M6960 9061 l0 -342 25 -24 24 -25 602 0 c331 0 600 2 598 4 -2 2
-110 65 -239 140 l-234 136 -222 0 c-279 0 -267 -6 -272 138 -2 57 1 108 7
119 9 18 -3 27 -117 93 -70 40 -137 80 -149 88 l-23 14 0 -341z"/>
<path d="M4625 5104 c-33 -8 -161 -37 -285 -65 -212 -49 -607 -150 -768 -198
l-72 -22 0 -49 c0 -28 4 -50 9 -50 5 0 107 27 228 61 236 66 608 158 850 211
151 32 152 33 147 58 -3 14 -7 35 -10 48 -5 25 -14 26 -99 6z"/>
<path d="M4595 4709 c-315 -65 -590 -133 -977 -240 l-118 -32 0 -55 c0 -44 3
-53 15 -48 30 11 415 116 570 155 126 31 697 161 709 161 4 0 -10 90 -15 94
-2 2 -85 -14 -184 -35z"/>
<path d="M4558 4320 c-273 -59 -615 -142 -870 -212 l-188 -51 0 -53 0 -53 68
20 c293 84 664 176 1037 255 116 24 220 46 232 49 14 3 20 11 18 22 -15 72
-15 73 -43 72 -15 0 -129 -22 -254 -49z"/>
<path d="M15230 4048 c0 -123 43 -198 113 -198 69 0 115 70 120 180 l2 55 -65
7 c-36 3 -89 9 -117 12 l-53 6 0 -62z"/>
<path d="M2590 3991 c0 -60 20 -115 57 -153 21 -22 36 -28 68 -28 65 0 114 56
129 145 l7 41 -103 18 c-57 9 -115 20 -130 23 -28 5 -28 5 -28 -46z"/>
</g>
</svg>
